<?xml version="1.0" encoding="UTF-8"?>
<svg id="Layer_1" xmlns="http://www.w3.org/2000/svg" version="1.1" viewBox="0 0 32 32">
  <!-- Generator: Adobe Illustrator 30.0.0, SVG Export Plug-In . SVG Version: 2.1.1 Build 123)  -->
  <defs>
    <style>
      .st0 {
        fill: #007fff;
      }

      .st1 {
        fill: #fff;
      }
    </style>
  </defs>
  <rect class="st0" width="32" height="32"/>
  <g>
    <path class="st1" d="M23.8167939,2.439382c-.8685462.1508209-1.5815883.3594556-2.496003.7962027-1.3941596.7270312-2.7939331,2.0863358-3.2849258,3.5992562-.3814652,1.1754295-.3735092,2.3690479-.1413595,3.5703826.1752757.9070237.5062133,1.7606493.878895,2.6014007.42456.9577859.9698848,1.8473454,1.519001,2.7355393.502224.8123463,1.0066951,1.6234352,1.4974131,2.4427208.3688144.6157609.6518317,1.2738412.9153111,1.9411386.3489975.8838898.6085669,1.7881737.6723287,2.7408131.1229806,1.8373872-.4455846,3.4278332-1.7174577,4.7607781-.7839891.8216365-1.2258276,1.2173815-2.2568321,1.6795374-.1860239.0833851-.3744457.1614232-.5799821.249763.030436,0,.0405956.0018521.0498518-.0002599.8898621-.2032039,1.2467833-.2985789,2.0394679-.7567585,1.3492363-.7798785,2.364708-1.859766,2.93621-3.3247131.528178-1.3538971.5786715-2.7471682.2830836-4.1565606-.2801031-1.3355574-.7681956-2.5979215-1.4554441-3.7748634-.6087989-1.0425915-1.2504623-2.0662834-1.8905822-3.0902152-.6622703-1.0593634-1.2341455-2.1630423-1.6642043-3.3361833-.3759604-1.0255728-.5760704-2.0817814-.4877367-3.1810096.0979675-1.2190618.5713485-2.2715679,1.3997883-3.1664127.5252699-.5673751,1.5483008-1.2880353,2.2290164-1.6471928.5110956-.2696623,1.044863-.4859692,1.5937578-.6836425-.0132159,0-.0267684-.0019492-.0395972.0002794Z"/>
    <path class="st1" d="M8.2882829,29.5576678c.0119729-.0013028.0242259-.00139.035878-.0040792.8689285-.2006768,1.727549-.5737692,2.5051952-1.0160664,1.1890417-.6762841,2.1340643-1.5933584,2.745821-2.8283228.7137689-1.4409115.8339896-2.958928.5439418-4.520096-.2215475-1.1924704-.649071-2.3165208-1.194837-3.3956183-.4779747-.9450565-1.0544881-1.8327796-1.61813-2.7276408-.6053802-.9611265-1.21654-1.9179933-1.6938102-2.9537571-.3779506-.8202213-.7156022-1.6520234-.8961105-2.5406098-.1651636-.8130496-.2107766-1.6297148-.0609675-2.4500412.2482527-1.3593841.9581659-2.4349546,2.0362488-3.2783578.7858996-.6148234,1.676468-1.0310668,2.6145403-1.3538596.0350436-.0120586.0697044-.0252275.1270929-.0460677-.0341891-.0040749-.0411131-.0065095-.0474333-.0054258-.9512922.1631338-1.86854.4307964-2.7134391.9087438-1.3990889.7914458-2.3514586,1.9405159-2.7687928,3.5065761-.3204328,1.2024338-.2583076,2.4050437.0212526,3.6054968.225844.9697924.6140713,1.8787537,1.0451461,2.7702821.4851802,1.0034251,1.0931906,1.9359215,1.6899911,2.8742959.7695177,1.2099443,1.5102787,2.4332588,2.0200175,3.7837011.3725391.9869575.6497001,1.9900417.6676383,3.0517952.024401,1.4441884-.393793,2.7441964-1.2847429,3.8848234-.8210856,1.0511798-1.9078056,1.8700922-3.104799,2.4286119-.2216913.1034392-.4482505.1964477-.672563.2942695.0009539.0037827.0019078.0075619.0028618.0113464Z"/>
    <path class="st1" d="M14.5201604,29.5635276c.0190155-.0023875.0384309-.0030642.0569891-.0074084.9022042-.2111948,1.595296-.4411025,2.3950995-.9153617,1.2505835-.7415614,2.2101447-1.7487073,2.7839584-3.0971702.5783951-1.3592232.6592959-2.7695871.3840123-4.205891-.2399793-1.252099-.6807775-2.4382579-1.2900699-3.5545127-.4310694-.789739-.9068406-1.5557747-1.3799828-2.3216883-.690168-1.1172297-1.4091082-2.216315-1.9438139-3.4227608-.3494998-.7885679-.6523623-1.5896638-.8096558-2.4404283-.145818-.7886883-.1736394-1.5797994-.0204966-2.3700725.2592089-1.3376209.9709521-2.3939869,2.035687-3.2227774.7900015-.614937,1.9070498-1.2042121,2.8494372-1.5253573.0193739-.0066022.0390382-.0124718.0580363-.0200174.0156871-.0062305.0305895-.0144368.0458398-.0217679-1.0378758.1649082-2.2544733.6300056-3.1576943,1.1783732-1.6424786.9971892-2.5632977,2.4584791-2.7738952,4.364806-.1011066.9152165-.0087391,1.8192236.2127012,2.7102018.3084211,1.2409532.8205221,2.4016072,1.4544186,3.5047507.5129748.8927091,1.07188,1.7592628,1.6187264,2.6322099.722552,1.1534296,1.3688736,2.3435543,1.8190614,3.6333932.3899907,1.1173675.608437,2.2565557.4835006,3.4460648-.1328498,1.2648719-.6254095,2.3725917-1.4521794,3.3330145-.8028084.9325818-1.8006946,1.6000553-2.9093858,2.1126176-.2096919.0969429-.2515807.1061406-.4635947.1980608.0011.0039065.0022009.0078131.0033005.0117213Z"/>
    <path class="st1" d="M21.9025057,2.4379971c-.9312102.157293-2.2978567.6419218-3.1292595,1.099835-1.3931281.7672962-2.3608634,1.8878909-2.8045034,3.4308805-.3330017,1.1581911-.3011957,2.3252403-.0597184,3.494882.2064041.9997584.5927996,1.9348114,1.0268913,2.8520654.5019694,1.0606845,1.1409496,2.0421293,1.7686228,3.0296885.7618771,1.1987052,1.4971707,2.4097996,2.0031809,3.746876.3387551.8951245.6057504,1.8034859.6641878,2.7636942.1082517,1.7787265-.4355227,3.3286685-1.6472597,4.6365523-.8839107.9540485-1.6640578,1.4672143-2.8556231,1.9622583-.0377965.0157046-.0759287.0305965-.1137558.0462278-.0375253.015504-.0748614.031465-.1122812.0472271.0186755.011165.0321896.0106313.0451369.0076404.8454175-.1951676,1.3537341-.3326494,2.1138524-.7557854,1.1594594-.6454452,2.0951987-1.5206761,2.7234788-2.7005707.7510766-1.4104999.9203277-2.9143343.6646011-4.4722079-.2293523-1.3971968-.719698-2.7111427-1.4138396-3.9389515-.5923025-1.0476717-1.2323876-2.0691192-1.8737824-3.088037-.7093501-1.1268687-1.3340392-2.2945684-1.7921038-3.5458643-.3779938-1.0325645-.5762753-2.096035-.4829957-3.2019104.1037741-1.2303123.5914628-2.2875798,1.4369823-3.1814886.6063477-.641051,1.3314538-1.1174084,2.1277406-1.4851767.4112403-.1899331,1.3033843-.577039,1.7133637-.7475758.0101831.0018475.0032796-.001306-.0029159-.0002591Z"/>
    <path class="st1" d="M17.5521247,2.4401569c-.8236325.1461919-1.8248218.488974-2.5742469.8678319-1.5184892.7676447-2.5744064,1.9319349-3.03914,3.5905533-.3408766,1.2165788-.2834551,2.4365357-.0020304,3.6548878.2318763,1.0038402.6343173,1.9439019,1.0869733,2.8633149.5073447,1.0304909,1.1373801,1.9894069,1.7536084,2.9558909.7769434,1.2185491,1.5026712,2.4625909,1.9989639,3.8287517.3939644,1.0844759.6485469,2.1890635.5804129,3.3525541-.0853759,1.4578892-.6354051,2.7172676-1.6179512,3.7897972-.7988213.8719731-1.7690989,1.5027288-2.8408542,1.9860392-.1851096.0834758-.3798778.1407186-.5663124.2212541.0772215-.0007778.1498266-.0162504.22181-.034217,1.2856986-.3208932,2.4776633-.8260366,3.4858451-1.7049106,1.3811076-1.2039668,2.1048517-2.7329285,2.2255119-4.5520684.0641028-.9664238-.0694542-1.9124954-.3351843-2.8415125-.3855183-1.3478089-.9717709-2.6055933-1.7079504-3.7952977-.5905856-.9544148-1.1986049-1.8982933-1.7753737-2.8609379-.6114096-1.020463-1.1290992-2.0886588-1.4894148-3.2260777-.2931943-.9255361-.4346764-1.8714795-.343585-2.8451775.1150406-1.2297006.6136127-2.2818609,1.4660776-3.1683716.6261009-.6511066,1.3751912-1.1275217,2.193154-1.497471.3690612-.1669195.9499336-.4294564,1.338203-.5885175-.0256279.0015088-.0423867.0008222-.0585168.0036845Z"/>
    <path class="st1" d="M15.4522164,2.4388502c-.9164264.160023-1.8826079.4743319-2.7016742.9254966-1.5260073.8405675-2.5227333,2.0904625-2.9026204,3.8049502-.2476776,1.1178013-.175631,2.2305058.0824761,3.3372694.2402781,1.0303165.6559774,1.9942761,1.1258585,2.935658.5051866,1.0121154,1.1293199,1.9546362,1.7335604,2.9084955.7180342,1.1334941,1.4010523,2.2841856,1.8817224,3.5455975.3618437.9495787.6396011,1.9141958.6812989,2.9357156.0582412,1.4268619-.310111,2.7284709-1.1559775,3.8852193-.8120598,1.1105171-1.8941325,1.8836726-3.1221428,2.4692956-.2548751.1215488-.5164996.2289468-.7835527.3466292.0193741,0,.0295457.0018451.0388185-.0002599.9036581-.2052757,1.7708551-.5086209,2.5738998-.9770098,1.3824985-.8063609,2.4059541-1.9264298,2.9596535-3.4433355.4865953-1.3330705.5179373-2.6980087.2219072-4.0728947-.2871331-1.3335535-.7796475-2.5939417-1.4697103-3.769274-.6043687-1.0293721-1.2386646-2.0414099-1.8711364-3.0539874-.6891303-1.1032865-1.2829383-2.2530485-1.7126827-3.4818078-.3526023-1.0081879-.5298725-2.0443607-.4258331-3.1178103.1198935-1.2370397.6275522-2.2918282,1.4904446-3.1782888.5978371-.6141666,1.3063504-1.0732334,2.0807851-1.4297057.4021171-.185094.897015-.4016491,1.3030905-.570229-.0018434,0-.0153802-.0019567-.0281854.0002759Z"/>
  </g>
</svg>