<svg width="140" height="45" viewBox="0 0 140 45" fill="none" xmlns="http://www.w3.org/2000/svg">
<rect width="140" height="45" fill="white"/>
<path d="M59.9304 28.0248C59.933 28.7271 59.798 29.4231 59.5332 30.0724C59.2684 30.7218 58.879 31.3117 58.3875 31.8082C57.896 32.3047 57.312 32.698 56.6694 32.9652C56.0267 33.2325 55.3381 33.3686 54.6431 33.3656H54.1863C53.4915 33.3684 52.803 33.2322 52.1605 32.9649C51.518 32.6975 50.9342 32.3042 50.4428 31.8077C49.9514 31.3112 49.5622 30.7214 49.2975 30.0721C49.0327 29.4228 48.8978 28.727 48.9004 28.0248V16.9852C48.8974 16.2828 49.0321 15.5867 49.2967 14.9371C49.5612 14.2875 49.9505 13.6973 50.4419 13.2006C50.9333 12.7038 51.5172 12.3103 52.1599 12.0427C52.8025 11.7752 53.4913 11.6389 54.1863 11.6418H54.6445C55.3414 11.6322 56.0331 11.7638 56.6788 12.029C57.3245 12.2941 57.911 12.6874 58.4038 13.1855C58.8966 13.6837 59.2855 14.2766 59.5477 14.9292C59.8099 15.5818 59.94 16.2809 59.9304 16.9852V18.8763C59.9389 18.925 59.9356 18.975 59.9209 19.0222C59.9061 19.0693 59.8803 19.1122 59.8456 19.147C59.811 19.1819 59.7685 19.2078 59.7218 19.2226C59.6751 19.2373 59.6256 19.2404 59.5774 19.2316H56.9525C56.9043 19.2404 56.8548 19.2373 56.8081 19.2226C56.7614 19.2078 56.7189 19.1819 56.6843 19.147C56.6496 19.1122 56.6238 19.0693 56.6091 19.0222C56.5943 18.975 56.591 18.925 56.5996 18.8763V16.9785C56.6026 16.7162 56.5537 16.4559 56.4558 16.2129C56.3579 15.9699 56.213 15.7492 56.0295 15.5636C55.846 15.378 55.6276 15.2314 55.3873 15.1323C55.1469 15.0332 54.8894 14.9836 54.6298 14.9865H54.1717C53.9121 14.9836 53.6546 15.0332 53.4142 15.1323C53.1739 15.2314 52.9555 15.378 52.772 15.5636C52.5885 15.7492 52.4436 15.9699 52.3457 16.2129C52.2478 16.4559 52.1989 16.7162 52.202 16.9785V28.0167C52.2089 28.5429 52.4187 29.0455 52.7869 29.4176C53.1551 29.7897 53.6524 30.0018 54.173 30.0087H54.6298C54.8894 30.0113 55.1468 29.9615 55.3871 29.8622C55.6273 29.763 55.8456 29.6164 56.0291 29.4309C56.2127 29.2454 56.3577 29.0248 56.4559 28.782C56.5541 28.5392 56.6034 28.279 56.6009 28.0167V26.123C56.6009 25.8735 56.7181 25.7488 56.9525 25.7488H59.5774C59.8127 25.7488 59.9304 25.8735 59.9304 26.123V28.0248ZM72.5904 12.1559C72.5904 12.1734 72.0044 13.9366 70.7725 17.2558L68.7149 23.5051C68.678 23.5963 68.6621 23.6948 68.6683 23.7931V32.8137C68.677 32.8624 68.6739 32.9124 68.6593 32.9596C68.6447 33.0068 68.6191 33.0498 68.5846 33.0848C68.55 33.1198 68.5077 33.1459 68.461 33.1608C68.4144 33.1757 68.3649 33.179 68.3167 33.1704H65.6904C65.6422 33.179 65.5927 33.1757 65.5461 33.1608C65.4994 33.1459 65.457 33.1198 65.4225 33.0848C65.388 33.0498 65.3623 33.0068 65.3478 32.9596C65.3332 32.9124 65.3301 32.8624 65.3388 32.8137V23.8079C65.3306 23.7009 65.3119 23.5949 65.2829 23.4916C65.1137 23.0488 64.4225 20.4995 63.2186 17.2275L61.4033 12.1559C61.3882 12.1198 61.3824 12.0804 61.3867 12.0414C61.3909 12.0024 61.405 11.9652 61.4276 11.9333C61.4502 11.9014 61.4806 11.8759 61.5157 11.8592C61.5509 11.8426 61.5897 11.8354 61.6284 11.8383H64.4478C64.5524 11.8281 64.6573 11.8539 64.7456 11.9116C64.8338 11.9693 64.9002 12.0554 64.9339 12.1559L66.8224 18.0068C66.857 18.0674 66.8997 18.128 66.9769 18.128C67.0114 18.1259 67.0445 18.1131 67.0716 18.0915C67.0988 18.0698 67.1187 18.0403 67.1287 18.0068L69.0665 12.1559C69.0949 12.0582 69.1556 11.9734 69.2385 11.9156C69.3215 11.8577 69.4215 11.8305 69.522 11.8383H72.34C72.3807 11.8302 72.4228 11.8336 72.4617 11.8481C72.5006 11.8625 72.5349 11.8875 72.5607 11.9203C72.5865 11.953 72.6029 11.9923 72.6082 12.0339C72.6134 12.0754 72.6073 12.1177 72.5904 12.1559ZM85.7486 19.9046C85.7514 20.6071 85.6165 21.3031 85.3518 21.9526C85.0871 22.6022 84.6977 23.1923 84.2062 23.6889C83.7146 24.1855 83.1306 24.5789 82.4879 24.8463C81.8451 25.1137 81.1564 25.2498 80.4613 25.2467H78.3797C78.3316 25.2381 78.282 25.2414 78.2354 25.2564C78.1888 25.2713 78.1464 25.2973 78.1118 25.3324C78.0773 25.3674 78.0517 25.4103 78.0371 25.4575C78.0225 25.5047 78.0195 25.5548 78.0281 25.6034V32.8137C78.0369 32.8625 78.0338 32.9127 78.0192 32.96C78.0045 33.0074 77.9788 33.0504 77.9441 33.0854C77.9094 33.1205 77.8668 33.1465 77.82 33.1613C77.7732 33.1761 77.7235 33.1793 77.6752 33.1704H75.0569C75.0087 33.179 74.9592 33.1757 74.9126 33.1608C74.8659 33.1459 74.8235 33.1198 74.789 33.0848C74.7545 33.0498 74.7288 33.0068 74.7143 32.9596C74.6997 32.9124 74.6966 32.8624 74.7053 32.8137V12.1613C74.6966 12.1127 74.6997 12.0626 74.7143 12.0154C74.7288 11.9682 74.7545 11.9253 74.789 11.8903C74.8235 11.8552 74.8659 11.8292 74.9126 11.8142C74.9592 11.7993 75.0087 11.796 75.0569 11.8046H80.4507C81.1476 11.7949 81.8393 11.9263 82.4851 12.1913C83.1308 12.4563 83.7175 12.8494 84.2104 13.3474C84.7033 13.8454 85.0924 14.4382 85.3548 15.0908C85.6171 15.7434 85.7474 16.4424 85.7379 17.1468L85.7486 19.9046ZM82.435 19.9046V17.1481C82.4374 16.886 82.388 16.6261 82.2898 16.3835C82.1916 16.141 82.0466 15.9206 81.8633 15.7353C81.6799 15.55 81.4618 15.4034 81.2218 15.3042C80.9818 15.205 80.7246 15.1551 80.4653 15.1574H78.3837C78.1484 15.1574 78.0308 15.2821 78.0308 15.5316V21.5211C78.0308 21.7706 78.1484 21.8953 78.3837 21.8953H80.4653C80.7249 21.8984 80.9825 21.849 81.2229 21.75C81.4633 21.6511 81.6817 21.5046 81.8654 21.3192C82.049 21.1337 82.1941 20.913 82.2921 20.6701C82.3902 20.4272 82.4379 20.167 82.435 19.9046ZM99.4088 32.8137C99.4687 33.0493 99.3488 33.1704 99.1797 33.1704H96.5521C96.4518 33.1703 96.3548 33.1345 96.278 33.0693C96.2013 33.0041 96.1498 32.9136 96.1326 32.8137L94.0177 24.8591C93.9946 24.7544 93.9358 24.6612 93.8515 24.596C93.7672 24.5308 93.6629 24.4976 93.5569 24.5024H92.1145C91.8642 24.5024 91.7416 24.6195 91.7416 24.8591V32.8137C91.7504 32.8625 91.7473 32.9127 91.7327 32.96C91.718 33.0074 91.6923 33.0504 91.6576 33.0854C91.6229 33.1205 91.5803 33.1465 91.5335 33.1613C91.4866 33.1761 91.437 33.1793 91.3887 33.1704H88.7624C88.7142 33.179 88.6647 33.1757 88.6181 33.1608C88.5714 33.1459 88.529 33.1198 88.4945 33.0848C88.46 33.0498 88.4343 33.0068 88.4198 32.9596C88.4052 32.9124 88.4021 32.8624 88.4108 32.8137V12.1344C88.4083 12.0885 88.416 12.0426 88.4332 12C88.4505 11.9575 88.4769 11.9193 88.5106 11.8884C88.5443 11.8575 88.5844 11.8345 88.6279 11.8212C88.6715 11.8078 88.7174 11.8045 88.7624 11.8114H94.1575C94.8539 11.7993 95.5453 11.9324 96.1885 12.2024C96.8317 12.4724 97.4129 12.8736 97.8959 13.3808C98.3939 13.8743 98.7873 14.465 99.0522 15.1171C99.3171 15.7692 99.4479 16.4689 99.4367 17.1737V19.4349C99.4367 21.0303 98.7424 22.4346 97.3538 23.6477C97.2865 23.6891 97.232 23.7488 97.1967 23.8199C97.1614 23.8911 97.1466 23.9709 97.154 24.0502C97.154 24.1646 97.5056 25.7138 98.2381 28.1957L99.4088 32.8137ZM96.1712 19.4308V17.0956C96.1742 16.8328 96.1253 16.5721 96.0274 16.3287C95.9295 16.0852 95.7846 15.864 95.601 15.6779C95.4175 15.4917 95.199 15.3445 94.9585 15.2447C94.7179 15.145 94.4601 15.0947 94.2001 15.0969H92.0879C91.842 15.0969 91.719 15.2157 91.719 15.4535V21.0796C91.7115 21.1305 91.7158 21.1825 91.7316 21.2314C91.7474 21.2803 91.7743 21.3248 91.8101 21.3614C91.8459 21.398 91.8897 21.4256 91.9379 21.4421C91.9861 21.4586 92.0375 21.4636 92.0879 21.4565H94.2028C94.4627 21.4589 94.7204 21.4088 94.9609 21.3091C95.2013 21.2095 95.4197 21.0623 95.6031 20.8763C95.7866 20.6903 95.9315 20.4691 96.0292 20.2257C96.127 19.9824 96.1757 19.7217 96.1725 19.4591L96.1712 19.4308ZM112.693 32.8137C112.702 32.8624 112.699 32.9124 112.684 32.9596C112.67 33.0068 112.644 33.0498 112.61 33.0848C112.575 33.1198 112.533 33.1459 112.486 33.1608C112.44 33.1757 112.39 33.179 112.342 33.1704H102.542C102.494 33.1793 102.445 33.1761 102.398 33.1613C102.351 33.1465 102.308 33.1205 102.274 33.0854C102.239 33.0504 102.213 33.0074 102.199 32.96C102.184 32.9127 102.181 32.8625 102.19 32.8137V12.1882C102.181 12.1394 102.184 12.0892 102.199 12.0419C102.213 11.9946 102.239 11.9516 102.274 11.9165C102.308 11.8815 102.351 11.8554 102.398 11.8406C102.445 11.8258 102.494 11.8227 102.542 11.8316H112.363C112.411 11.823 112.461 11.8263 112.507 11.8412C112.554 11.8561 112.597 11.8822 112.631 11.9172C112.666 11.9522 112.691 11.9951 112.706 12.0423C112.72 12.0895 112.723 12.1396 112.715 12.1882V14.8398C112.723 14.8884 112.72 14.9385 112.706 14.9857C112.691 15.0329 112.666 15.0758 112.631 15.1108C112.597 15.1459 112.554 15.1719 112.507 15.1868C112.461 15.2017 112.411 15.205 112.363 15.1965H105.872C105.625 15.1965 105.502 15.3153 105.502 15.5531V20.4928C105.502 20.7297 105.625 20.8481 105.872 20.8481H110.981C111.21 20.8481 111.334 20.9733 111.334 21.2048V23.8079C111.334 24.0457 111.216 24.1646 110.981 24.1646H105.872C105.625 24.1646 105.502 24.283 105.502 24.5199V29.4663C105.502 29.7041 105.625 29.823 105.872 29.823H112.352C112.401 29.8145 112.45 29.8178 112.496 29.8326C112.543 29.8475 112.585 29.8734 112.62 29.9083C112.654 29.9431 112.68 29.9859 112.695 30.0329C112.709 30.0799 112.713 30.1298 112.704 30.1783L112.693 32.8137ZM126.292 28.0248C126.295 28.7271 126.16 29.4231 125.895 30.0724C125.63 30.7218 125.241 31.3117 124.75 31.8082C124.258 32.3047 123.674 32.698 123.031 32.9652C122.389 33.2325 121.7 33.3686 121.005 33.3656H120.548C119.854 33.3684 119.165 33.2322 118.523 32.9649C117.88 32.6975 117.296 32.3042 116.805 31.8077C116.313 31.3112 115.924 30.7214 115.659 30.0721C115.395 29.4228 115.26 28.727 115.262 28.0248V26.5537C115.262 26.3042 115.38 26.1795 115.615 26.1795H118.239C118.474 26.1795 118.592 26.3042 118.592 26.5537V28.0248C118.599 28.5507 118.809 29.053 119.177 29.4248C119.545 29.7966 120.043 30.0085 120.563 30.0155H121.02C121.282 30.0224 121.543 29.9743 121.785 29.8743C122.028 29.7742 122.248 29.6243 122.43 29.434C122.616 29.2484 122.763 29.0263 122.861 28.7814C122.959 28.5366 123.006 28.2741 123 28.01C123.026 27.6049 122.963 27.199 122.814 26.8218C122.666 26.4446 122.436 26.1057 122.141 25.8295C121.246 25.0632 119.636 23.663 117.309 21.6288C116.651 21.0521 116.128 20.3339 115.779 19.5268C115.431 18.7196 115.265 17.8439 115.294 16.9637C115.291 16.2611 115.425 15.5648 115.689 14.9149C115.954 14.2651 116.343 13.6747 116.834 13.1779C117.326 12.6811 117.91 12.2877 118.553 12.0206C119.196 11.7535 119.885 11.6178 120.58 11.6216H121.038C121.735 11.6122 122.427 11.7439 123.072 12.0091C123.718 12.2742 124.304 12.6674 124.796 13.1654C125.289 13.6633 125.678 14.256 125.94 14.9084C126.202 15.5608 126.333 16.2596 126.323 16.9637V18.5196C126.323 18.7691 126.206 18.8938 125.971 18.8938H123.332C123.097 18.8938 122.979 18.7691 122.979 18.5196V16.9772C122.982 16.7149 122.933 16.4548 122.835 16.212C122.737 15.9691 122.592 15.7485 122.408 15.5631C122.225 15.3777 122.007 15.2312 121.766 15.1321C121.526 15.0331 121.269 14.9836 121.009 14.9865H120.551C120.291 14.9836 120.034 15.0332 119.794 15.1323C119.553 15.2314 119.335 15.378 119.151 15.5636C118.968 15.7492 118.823 15.9699 118.725 16.2129C118.627 16.4559 118.578 16.7162 118.581 16.9785C118.562 17.3788 118.631 17.7785 118.784 18.1482C118.937 18.5178 119.171 18.848 119.467 19.1145L124.261 23.3274C124.925 23.9076 125.452 24.6306 125.804 25.4434C126.155 26.2563 126.322 27.1383 126.292 28.0248ZM139.974 28.0248C139.977 28.7269 139.842 29.4226 139.577 30.0718C139.312 30.721 138.923 31.3108 138.432 31.8072C137.941 32.3037 137.357 32.697 136.715 32.9645C136.072 33.2319 135.384 33.3682 134.689 33.3656H134.255C133.56 33.3684 132.872 33.2322 132.229 32.9649C131.587 32.6975 131.003 32.3042 130.512 31.8077C130.02 31.3112 129.631 30.7214 129.366 30.0721C129.102 29.4228 128.967 28.727 128.969 28.0248V26.5537C128.969 26.3042 129.087 26.1795 129.322 26.1795H131.947C132.182 26.1795 132.3 26.3042 132.3 26.5537V28.0248C132.307 28.548 132.515 29.0479 132.88 29.4193C133.244 29.7906 133.738 30.0044 134.255 30.0155H134.713C134.975 30.0222 135.236 29.9741 135.478 29.874C135.721 29.7739 135.94 29.6241 136.122 29.434C136.309 29.2485 136.455 29.0265 136.553 28.7816C136.652 28.5367 136.699 28.2742 136.694 28.01C136.72 27.6048 136.656 27.1988 136.507 26.8216C136.358 26.4445 136.128 26.1055 135.833 25.8295C134.938 25.0632 133.328 23.663 131.003 21.6288C130.341 21.0539 129.815 20.3366 129.463 19.5293C129.111 18.722 128.942 17.8454 128.969 16.9637C128.966 16.261 129.1 15.5645 129.364 14.9146C129.629 14.2647 130.018 13.6742 130.51 13.1774C131.001 12.6806 131.586 12.2873 132.229 12.0202C132.872 11.7531 133.561 11.6177 134.257 11.6216H134.713C135.41 11.612 136.102 11.7436 136.747 12.0087C137.393 12.2737 137.979 12.6669 138.472 13.1649C138.965 13.6629 139.354 14.2556 139.616 14.9081C139.878 15.5605 140.009 16.2595 139.999 16.9637V18.5196C139.999 18.7691 139.882 18.8938 139.646 18.8938H137.023C136.787 18.8938 136.67 18.7691 136.67 18.5196V16.9772C136.673 16.7148 136.624 16.4546 136.525 16.2116C136.427 15.9687 136.282 15.7481 136.099 15.5626C135.915 15.3772 135.697 15.2307 135.456 15.1317C135.216 15.0328 134.958 14.9834 134.699 14.9865H134.255C133.996 14.9836 133.738 15.0332 133.498 15.1323C133.257 15.2314 133.039 15.378 132.856 15.5636C132.672 15.7492 132.527 15.9699 132.429 16.2129C132.331 16.4559 132.282 16.7162 132.285 16.9785C132.266 17.3787 132.335 17.7783 132.488 18.148C132.641 18.5176 132.874 18.8479 133.17 19.1145L137.966 23.3274C138.625 23.9098 139.148 24.6338 139.496 25.4465C139.843 26.2592 140.006 27.1401 139.974 28.0248Z" fill="#007FFF"/>
<path d="M49.125 41.5534V36.5141H52.4092V37.3944H50.0985V38.5762H52.0643V39.4524H50.0985V40.6772H52.4092V41.5534H49.125ZM57.181 41.5534V38.6192L56.2288 40.5278H55.5709L54.6187 38.6165V41.5507H53.6464V36.5141H54.6053L55.9092 39.2384L57.201 36.5141H58.1426V41.5534H57.181ZM61.6665 41.5534H59.5809V36.5141H61.5813C62.5535 36.5141 63.1222 37.066 63.1222 37.9395C63.1236 38.1532 63.0669 38.3632 62.9581 38.5465C62.8494 38.7298 62.6928 38.8793 62.5055 38.9786C62.7203 39.0748 62.9009 39.2348 63.0237 39.4372C63.1464 39.6396 63.2054 39.8749 63.1928 40.1119C63.1967 41.0447 62.5575 41.5534 61.6665 41.5534ZM61.5067 37.3944H60.5571V38.5546H61.508C61.5891 38.5643 61.6713 38.5565 61.7491 38.5318C61.827 38.5071 61.8988 38.4659 61.9598 38.4111C62.0209 38.3563 62.0697 38.2891 62.1031 38.2138C62.1366 38.1386 62.1539 38.057 62.1539 37.9745C62.1539 37.892 62.1366 37.8105 62.1031 37.7352C62.0697 37.6599 62.0209 37.5927 61.9598 37.5379C61.8988 37.4831 61.827 37.442 61.7491 37.4172C61.6713 37.3925 61.5878 37.3847 61.5067 37.3944ZM61.5706 39.4389H60.5558V40.6772H61.5706C61.7331 40.6772 61.8889 40.612 62.0038 40.4959C62.1187 40.3797 62.1833 40.2223 62.1833 40.0581C62.1833 39.8939 62.1187 39.7364 62.0038 39.6203C61.8889 39.5042 61.7331 39.4389 61.5706 39.4389ZM64.45 41.5534V36.5141H67.7342V37.3944H65.4222V38.5762H67.3892V39.4524H65.4222V40.6772H67.7342V41.5534H64.45ZM72.0758 41.0729C71.899 41.2368 71.6918 41.3637 71.4662 41.4462C71.2406 41.5286 71.001 41.5651 70.7613 41.5534H68.9608V36.5141H70.7613C71.0011 36.5027 71.2407 36.5393 71.4663 36.622C71.692 36.7047 71.8991 36.8318 72.0758 36.996C72.6352 37.5613 72.5792 38.2558 72.5792 39.0109C72.5792 39.766 72.6352 40.5063 72.0758 41.0729ZM71.3966 37.704C71.3079 37.5973 71.1953 37.5135 71.0682 37.4596C70.941 37.4058 70.8029 37.3834 70.6655 37.3944H69.929V40.6785H70.6655C70.8027 40.6889 70.9403 40.6662 71.0672 40.6124C71.194 40.5586 71.3065 40.4752 71.3953 40.369C71.5791 40.1402 71.607 39.7808 71.607 39.0176C71.607 38.2545 71.5804 37.9314 71.3966 37.704ZM76.9635 41.0729C76.7862 41.2373 76.5784 41.3645 76.352 41.447C76.1257 41.5295 75.8853 41.5656 75.645 41.5534H73.8444V36.5141H75.645C75.8854 36.5023 76.1258 36.5387 76.3521 36.6214C76.5784 36.7042 76.7862 36.8315 76.9635 36.996C77.5229 37.5613 77.4669 38.2558 77.4669 39.0109C77.4669 39.766 77.5229 40.5063 76.9635 41.0729ZM76.283 37.704C76.1944 37.5975 76.082 37.5138 75.9551 37.46C75.8282 37.4061 75.6904 37.3836 75.5531 37.3944H74.8167V40.6785H75.5531C75.6903 40.6889 75.828 40.6662 75.9549 40.6124C76.0817 40.5586 76.1941 40.4752 76.283 40.369C76.4654 40.1402 76.4947 39.7808 76.4947 39.0176C76.4947 38.2545 76.4654 37.9314 76.287 37.704H76.283ZM78.7388 41.5534V36.5141H82.023V37.3944H79.711V38.5762H81.6781V39.4524H79.711V40.6772H82.023V41.5534H78.7388ZM86.3647 41.0729C86.1874 41.2373 85.9795 41.3645 85.7532 41.447C85.5268 41.5295 85.2865 41.5656 85.0462 41.5534H83.2456V36.5141H85.0462C85.2866 36.5023 85.5269 36.5387 85.7532 36.6214C85.9796 36.7042 86.1874 36.8315 86.3647 36.996C86.924 37.5613 86.8681 38.2558 86.8681 39.0109C86.8681 39.766 86.924 40.5063 86.3647 41.0729ZM85.6841 37.704C85.5956 37.5975 85.4832 37.5138 85.3563 37.46C85.2293 37.4061 85.0915 37.3836 84.9543 37.3944H84.2178V40.6785H84.9543C85.0915 40.6889 85.2291 40.6662 85.356 40.6124C85.4829 40.5586 85.5953 40.4752 85.6841 40.369C85.8679 40.1402 85.8959 39.7808 85.8959 39.0176C85.8959 38.2545 85.8679 37.9314 85.6841 37.704ZM90.135 41.5534V36.5141H91.1072V41.5534H90.135ZM95.4661 41.5534L93.4924 38.4631V41.5534H92.5202V36.5141H93.3792L95.3529 39.5991V36.5141H96.3252V41.5534H95.4661ZM101.671 37.3944V41.5534H100.699V37.3944H99.3936V36.5182H102.971V37.3931L101.671 37.3944ZM107.079 41.0447C106.718 41.3989 106.235 41.597 105.732 41.597C105.228 41.597 104.745 41.3989 104.384 41.0447C103.88 40.5359 103.895 39.9046 103.895 39.0365C103.895 38.1683 103.895 37.5371 104.384 37.027C104.745 36.6727 105.228 36.4746 105.732 36.4746C106.235 36.4746 106.718 36.6727 107.079 37.027C107.584 37.5371 107.577 38.167 107.577 39.0365C107.577 39.906 107.584 40.5359 107.079 41.0447ZM106.375 37.6192C106.296 37.5316 106.2 37.4622 106.092 37.416C105.985 37.3697 105.868 37.3477 105.752 37.3513C105.634 37.3478 105.516 37.3698 105.407 37.416C105.298 37.4622 105.2 37.5315 105.12 37.6192C104.93 37.8318 104.881 38.0633 104.881 39.0432C104.881 40.0231 104.93 40.2465 105.12 40.4672C105.2 40.5549 105.298 40.6242 105.407 40.6704C105.516 40.7166 105.634 40.7387 105.752 40.7351C105.868 40.7387 105.985 40.7167 106.092 40.6704C106.2 40.6242 106.296 40.5549 106.375 40.4672C106.565 40.2532 106.621 40.0231 106.621 39.0432C106.621 38.0633 106.548 37.8318 106.362 37.6192H106.375ZM112.408 41.5534V38.6192L111.457 40.5278H110.787L109.828 38.6192V41.5534H108.856V36.5141H109.815L111.119 39.2384L112.411 36.5141H113.369V41.5534H112.408ZM117.842 41.0447C117.481 41.3989 116.997 41.597 116.494 41.597C115.991 41.597 115.507 41.3989 115.146 41.0447C114.641 40.5359 114.656 39.9046 114.656 39.0365C114.656 38.1683 114.656 37.5371 115.146 37.027C115.507 36.6727 115.991 36.4746 116.494 36.4746C116.997 36.4746 117.481 36.6727 117.842 37.027C118.345 37.5371 118.338 38.167 118.338 39.0365C118.338 39.906 118.345 40.5359 117.842 41.0447ZM117.136 37.6192C117.057 37.5316 116.961 37.4622 116.853 37.416C116.746 37.3697 116.629 37.3477 116.512 37.3513C116.395 37.3479 116.277 37.3701 116.169 37.4163C116.06 37.4625 115.963 37.5317 115.883 37.6192C115.692 37.8318 115.643 38.0633 115.643 39.0432C115.643 40.0231 115.692 40.2465 115.883 40.4672C115.963 40.5547 116.06 40.6239 116.169 40.6701C116.277 40.7163 116.395 40.7385 116.512 40.7351C116.63 40.7389 116.746 40.717 116.854 40.6707C116.962 40.6245 117.058 40.555 117.137 40.4672C117.328 40.2532 117.383 40.0231 117.383 39.0432C117.383 38.0633 117.309 37.8318 117.118 37.6192H117.136ZM122.274 41.5534L121.288 39.5304H120.582V41.54H119.61V36.5141H121.569C121.778 36.4986 121.988 36.5272 122.185 36.5979C122.382 36.6687 122.562 36.7802 122.714 36.9253C122.867 37.0704 122.987 37.2459 123.069 37.4407C123.15 37.6354 123.191 37.8452 123.187 38.0566C123.196 38.3467 123.112 38.6318 122.948 38.8702C122.785 39.1086 122.55 39.2876 122.278 39.381L123.391 41.5534H122.274ZM121.505 37.3944H120.59V38.7229H121.505C121.596 38.73 121.687 38.7181 121.773 38.688C121.859 38.6579 121.938 38.6101 122.004 38.5477C122.071 38.4854 122.124 38.4097 122.161 38.3255C122.197 38.2414 122.216 38.1505 122.216 38.0586C122.216 37.9668 122.197 37.8759 122.161 37.7917C122.124 37.7076 122.071 37.6319 122.004 37.5695C121.938 37.5072 121.859 37.4594 121.773 37.4293C121.687 37.3991 121.596 37.3873 121.505 37.3944ZM127.14 41.5534L126.168 39.5304H125.462V41.54H124.494V36.5141H126.446C126.655 36.4988 126.864 36.5275 127.061 36.5984C127.258 36.6692 127.439 36.7807 127.591 36.9258C127.743 37.0709 127.863 37.2463 127.945 37.441C128.026 37.6357 128.066 37.8453 128.063 38.0566C128.072 38.3465 127.988 38.6315 127.825 38.8699C127.661 39.1082 127.426 39.2874 127.155 39.381L128.268 41.5534H127.14ZM126.386 37.3944H125.47V38.7229H126.386C126.477 38.73 126.568 38.7181 126.654 38.688C126.74 38.6579 126.819 38.6101 126.885 38.5477C126.952 38.4854 127.005 38.4097 127.042 38.3255C127.078 38.2414 127.097 38.1505 127.097 38.0586C127.097 37.9668 127.078 37.8759 127.042 37.7917C127.005 37.7076 126.952 37.6319 126.885 37.5695C126.819 37.5072 126.74 37.4594 126.654 37.4293C126.568 37.3991 126.477 37.3873 126.386 37.3944ZM132.37 41.0447C132.009 41.3989 131.526 41.597 131.022 41.597C130.519 41.597 130.036 41.3989 129.675 41.0447C129.17 40.5359 129.185 39.9046 129.185 39.0365C129.185 38.1683 129.185 37.5371 129.675 37.027C130.036 36.6727 130.519 36.4746 131.022 36.4746C131.526 36.4746 132.009 36.6727 132.37 37.027C132.874 37.5371 132.867 38.167 132.867 39.0365C132.867 39.906 132.874 40.5359 132.37 41.0447ZM131.664 37.6192C131.586 37.5316 131.489 37.4622 131.382 37.416C131.274 37.3697 131.158 37.3477 131.041 37.3513C130.923 37.3479 130.806 37.3701 130.697 37.4163C130.589 37.4625 130.491 37.5317 130.411 37.6192C130.221 37.8318 130.171 38.0633 130.171 39.0432C130.171 40.0231 130.221 40.2465 130.411 40.4672C130.491 40.5547 130.589 40.6239 130.697 40.6701C130.806 40.7163 130.923 40.7385 131.041 40.7351C131.158 40.7387 131.274 40.7167 131.382 40.6704C131.489 40.6242 131.586 40.5549 131.664 40.4672C131.855 40.2532 131.912 40.0231 131.912 39.0432C131.912 38.0633 131.837 37.8318 131.647 37.6192H131.664ZM138.399 41.5534H137.588L136.672 38.4981L135.756 41.5534H134.946L133.617 36.5141H134.608L135.38 39.6906L136.288 36.5141H137.017L137.926 39.6906L138.706 36.5141H139.72L138.399 41.5534Z" fill="#007FFF"/>
<path d="M22.2663 45.0002C25.2517 45.0028 28.2069 44.3968 30.9552 43.2185C33.7035 42.0402 36.1883 40.3138 38.2612 38.1426H6.27148C8.34434 40.3138 10.8292 42.0402 13.5775 43.2185C16.3258 44.3968 19.281 45.0028 22.2663 45.0002Z" fill="#007FFF"/>
<path d="M28.5975 29.6654H27.6812L24.0188 34.6804H40.9792C42.9706 31.5637 44.1633 27.9951 44.4499 24.2963H32.509L28.5975 29.6654ZM3.62767 15.0657H9.16395V13.9109H6.15409V12.7574H11.2016V11.6039H13.8718V10.4504H20.7705V11.6039H27.2937V12.7574H26.0991V13.9109H40.256V15.0657H43.2765C41.7178 10.5654 38.7847 6.68181 34.9004 3.97544C31.016 1.26906 26.3814 -0.120181 21.6652 0.00815488C16.9489 0.136491 12.395 1.77577 8.66039 4.68946C4.9258 7.60316 2.20369 11.6406 0.886839 16.2192H3.62767V15.0657ZM14.8507 35.8339H18.4492V34.6804H20.4722L25.9592 27.17L22.4806 23.1496H19.2243V21.9867H22.2022V20.8332H17.3745V21.9867H10.3692V20.8332H8.77639V19.6797H4.79166V18.5181H0.354121C-0.227385 21.7689 -0.0914028 25.1094 0.752354 28.3009C1.59611 31.4924 3.12682 34.4562 5.23515 36.9807H14.8507V35.8339ZM41.4973 18.5195H42.3816V19.673H40.9739V20.8345H37.1516V21.988H35.0341V23.1496H38.8297V21.9867H44.5191C44.4873 20.4274 44.2954 18.8757 43.9464 17.3566H41.4999L41.4973 18.5195Z" fill="#007FFF"/>
</svg>
