<svg width="24" height="24" viewBox="0 0 24 24" fill="none" xmlns="http://www.w3.org/2000/svg">
<path fill-rule="evenodd" clip-rule="evenodd" d="M20.7856 11.4782L14.5875 5.21658C14.451 5.07875 14.2659 5 14.0709 5C13.876 5 13.6909 5.07875 13.5544 5.21658C13.418 5.35442 13.34 5.54149 13.34 5.7384C13.34 5.9353 13.418 6.12236 13.5544 6.2602L18.5051 11.2616H3.73091C3.536 11.2616 3.35084 11.3404 3.2144 11.4782C3.07797 11.616 3 11.8031 3 12C3 12.1969 3.07797 12.384 3.2144 12.5218C3.35084 12.6596 3.536 12.7384 3.73091 12.7384H18.5051L13.5544 17.7398C13.418 17.8776 13.34 18.0647 13.34 18.2616C13.34 18.4585 13.418 18.6456 13.5544 18.7834C13.6909 18.9213 13.876 19 14.0709 19C14.2659 19 14.451 18.9213 14.5875 18.7834L20.7856 12.5218C20.922 12.384 21 12.1969 21 12C21 11.8031 20.922 11.616 20.7856 11.4782Z" fill="black"/>
</svg>
