<svg width="24" height="24" viewBox="0 0 24 24" fill="none" xmlns="http://www.w3.org/2000/svg">
<path fill-rule="evenodd" clip-rule="evenodd" d="M5.22813 5.22815C5.37332 5.08296 5.57037 5 5.77778 5C5.98519 5 6.18222 5.08296 6.32741 5.22815L17.4444 16.3452V8.88889C17.4444 8.68148 17.5274 8.48445 17.6726 8.33926C17.8178 8.19408 18.0148 8.11111 18.2222 8.11111C18.4296 8.11111 18.6267 8.19408 18.7719 8.33926C18.917 8.48445 19 8.68148 19 8.88889V18.2222C19 18.4296 18.917 18.6267 18.7719 18.7719C18.6267 18.9171 18.4296 19 18.2222 19H8.88889C8.68148 19 8.48443 18.9171 8.33924 18.7719C8.19406 18.6267 8.11111 18.4296 8.11111 18.2222C8.11111 18.0148 8.19406 17.8178 8.33924 17.6726C8.48443 17.5274 8.68148 17.4444 8.88889 17.4444H16.3452L5.22813 6.32742C5.08295 6.18224 5 5.98519 5 5.77778C5 5.57037 5.08295 5.37333 5.22813 5.22815Z" fill="black"/>
</svg>
