<svg width="24" height="24" viewBox="0 0 24 24" fill="none" xmlns="http://www.w3.org/2000/svg">
<path fill-rule="evenodd" clip-rule="evenodd" d="M7.24764 3H16.7524C17.9117 3 18.4914 3 18.9611 3.15612C19.8506 3.4586 20.5403 4.15136 20.8401 5.04903C21 5.51739 21 6.10283 21 7.26396V20.9242C21 21.7634 20.2404 22.4074 19.3909 21.6463C18.7313 21.0121 18.1016 21.1096 17.6219 21.5682C16.9822 22.1439 16.0128 22.1439 15.3731 21.5682C14.7335 20.9926 13.764 20.9926 13.1244 21.5682C12.4847 22.1439 11.5153 22.1439 10.8756 21.5682C10.236 20.9926 9.26652 20.9926 8.62688 21.5682C7.98723 22.1439 7.01777 22.1439 6.37813 21.5682C5.86841 21.0706 5.35869 21.0218 4.60911 21.6463C3.72959 22.4171 3 21.7536 3 20.9242V7.26396C3 6.10283 3 5.51739 3.15991 5.04903C3.45975 4.16112 4.15936 3.4586 5.03887 3.15612C5.50861 3 6.08828 3 7.24764 3ZM15.0533 9.34228C15.3332 9.0398 15.3032 8.58121 14.9933 8.308C14.6835 8.0348 14.2138 8.06407 13.9339 8.36654L10.9256 11.6548L10.0561 10.7083C9.78624 10.4058 9.30649 10.3863 8.99667 10.6498C8.68684 10.9132 8.66685 11.3816 8.9367 11.684L10.3659 13.2452C10.5058 13.4013 10.7157 13.4892 10.9256 13.4892C11.1355 13.4892 11.3454 13.4013 11.4853 13.2452L15.0533 9.34228ZM7.5075 15.4406C7.09773 15.4406 6.75792 15.7724 6.75792 16.1724C6.75792 16.5725 7.09773 16.9042 7.5075 16.9042H16.5025C16.9123 16.9042 17.2521 16.5725 17.2521 16.1724C17.2521 15.7724 16.9123 15.4406 16.5025 15.4406H7.5075Z" fill="black"/>
</svg>
