<svg width="24" height="24" viewBox="0 0 24 24" fill="none" xmlns="http://www.w3.org/2000/svg">
<path d="M9.71177 4H13.5677C17.2018 4 19.0237 4 20.1516 5.11761C20.9613 5.92 21.1927 7.08537 21.2601 9.01493H2.02892C2.09639 7.08537 2.3181 5.92955 3.13748 5.11761C4.26532 4 6.08723 4 9.7214 4H9.71177Z" fill="black"/>
<path fill-rule="evenodd" clip-rule="evenodd" d="M21.2794 12.4251L20.8842 12.0334C20.0359 11.1928 18.6671 11.1928 17.8188 12.0334L17.0476 12.7976C16.7391 11.9857 15.9487 11.403 15.0136 11.403C13.8183 11.403 12.8447 12.3678 12.8447 13.5522V15.2334C12.3723 15.2812 11.9096 15.4913 11.553 15.8448C10.7047 16.6854 10.7047 18.0418 11.553 18.8824L11.9482 19.274H9.71177C6.0776 19.274 4.25569 19.274 3.12784 18.1564C2 17.0388 2 15.2334 2 11.6322C2 11.2119 2 10.8107 2 10.4382H21.2794C21.2794 10.8107 21.2794 11.2119 21.2794 11.6322C21.2794 11.8997 21.2794 12.1576 21.2794 12.4155V12.4251ZM5.85589 14.7463C5.46066 14.7463 5.13291 15.071 5.13291 15.4627C5.13291 15.8543 5.46066 16.1791 5.85589 16.1791H9.71177C10.107 16.1791 10.4348 15.8543 10.4348 15.4627C10.4348 15.071 10.107 14.7463 9.71177 14.7463H5.85589Z" fill="black"/>
<path fill-rule="evenodd" clip-rule="evenodd" d="M15.0136 12.8358C15.4089 12.8358 15.7366 13.1606 15.7366 13.5522V17.5546L16.4307 16.8669C16.7102 16.5898 17.1729 16.5898 17.4525 16.8669C17.732 17.1439 17.732 17.6024 17.4525 17.8794L15.5245 19.7898C15.245 20.0669 14.7823 20.0669 14.5027 19.7898L12.5748 17.8794C12.2952 17.6024 12.2952 17.1439 12.5748 16.8669C12.8543 16.5898 13.317 16.5898 13.5966 16.8669L14.2906 17.5546V13.5522C14.2906 13.1606 14.6184 12.8358 15.0136 12.8358ZM18.8406 13.046C19.1201 12.769 19.5828 12.769 19.8624 13.046L21.7903 14.9564C22.0699 15.2334 22.0699 15.6919 21.7903 15.9689C21.5108 16.246 21.0481 16.246 20.7685 15.9689L20.0745 15.2812V19.2836C20.0745 19.6752 19.7467 20 19.3515 20C18.9563 20 18.6285 19.6752 18.6285 19.2836V15.2812L17.9345 15.9689C17.6549 16.246 17.1922 16.246 16.9126 15.9689C16.6331 15.6919 16.6331 15.2334 16.9126 14.9564L18.8406 13.046Z" fill="black"/>
</svg>
