<svg width="24" height="24" viewBox="0 0 24 24" fill="none" xmlns="http://www.w3.org/2000/svg">
<path fill-rule="evenodd" clip-rule="evenodd" d="M3.45999 3.46C1.99999 4.92 2 7.28 2 12C2 16.72 1.99999 19.07 3.45999 20.54C4.91999 22 7.28 22 12 22C16.72 22 19.07 22 20.54 20.54C22 19.08 22 16.72 22 12C22 7.28 22 4.93 20.54 3.46C19.07 2 16.72 2 12 2C7.28 2 4.92999 2 3.45999 3.46ZM17 8.24C17.41 8.24 17.75 8.58 17.75 8.99V17.99C17.75 18.4 17.41 18.74 17 18.74C16.59 18.74 16.25 18.4 16.25 17.99V8.99C16.25 8.58 16.59 8.24 17 8.24ZM12.75 11.99C12.75 11.58 12.41 11.24 12 11.24C11.59 11.24 11.25 11.58 11.25 11.99V17.99C11.25 18.4 11.59 18.74 12 18.74C12.41 18.74 12.75 18.4 12.75 17.99V11.99ZM7 14.24C7.41 14.24 7.75 14.58 7.75 14.99V17.99C7.75 18.4 7.41 18.74 7 18.74C6.59 18.74 6.25 18.4 6.25 17.99V14.99C6.25 14.58 6.59 14.24 7 14.24Z" fill="black"/>
</svg>
