<svg width="24" height="24" viewBox="0 0 24 24" fill="none" xmlns="http://www.w3.org/2000/svg">
<path d="M9.5 2C8.67 2 8 2.67134 8 3.50301V4.50501C8 5.33667 8.67 6.00801 9.5 6.00801H14.5C15.33 6.00801 16 5.33667 16 4.50501V3.50301C16 2.67134 15.33 2 14.5 2H9.5Z" fill="black"/>
<path fill-rule="evenodd" clip-rule="evenodd" d="M6.5 4.00401C5.24 4.07415 4.45 4.27455 3.88 4.84569C3 5.72746 3 7.14029 3 9.97596V15.988C3 18.8237 3 20.2365 3.88 21.1182C4.76 22 6.17 22 9 22H15C17.83 22 19.24 22 20.12 21.1182C21 20.2365 21 18.8237 21 15.988V9.97596C21 7.14029 21 5.72746 20.12 4.84569C19.55 4.27455 18.76 4.07415 17.5 4.00401V4.46494C17.5 6.12827 16.16 7.47095 14.5 7.47095H9.5C7.84 7.47095 6.5 6.12827 6.5 4.46494V4.00401ZM15.51 12.5311C15.81 12.2505 15.83 11.7695 15.55 11.4689C15.27 11.1683 14.79 11.1483 14.49 11.4289L10.72 14.9559L9.52 13.8337C9.22 13.5531 8.74 13.5631 8.46 13.8738C8.18 14.1844 8.19 14.6553 8.5 14.9359L10.21 16.5391C10.5 16.8096 10.95 16.8096 11.23 16.5391L15.52 12.5311H15.51Z" fill="black"/>
</svg>
