<svg width="24" height="24" viewBox="0 0 24 24" fill="none" xmlns="http://www.w3.org/2000/svg">
<path d="M15.52 16.5C15.69 16.36 15.85 16.2 16.17 15.89L20.13 11.93C20.23 11.83 20.18 11.67 20.05 11.63C19.58 11.47 18.97 11.16 18.41 10.6C17.84 10.03 17.54 9.42 17.38 8.96C17.34 8.83 17.17 8.79 17.08 8.88L13.12 12.84C12.8 13.16 12.64 13.32 12.51 13.49C12.35 13.7 12.21 13.92 12.1 14.16C12 14.36 11.93 14.57 11.79 15L11.61 15.55L11.32 16.43L11.05 17.25C10.98 17.46 11.04 17.69 11.19 17.85C11.35 18.01 11.58 18.06 11.79 17.99L12.61 17.72L13.49 17.43L14.04 17.25C14.46 17.11 14.68 17.04 14.88 16.94C15.12 16.83 15.34 16.69 15.55 16.53L15.52 16.5Z" fill="black"/>
<path d="M21.37 10.69C22.21 9.85 22.21 8.48 21.37 7.63C20.52 6.79 19.16 6.79 18.31 7.63L18.18 7.76C18.06 7.88 18 8.05 18.03 8.23C18.05 8.34 18.09 8.49 18.15 8.68C18.28 9.06 18.53 9.55 18.99 10.01C19.45 10.47 19.94 10.72 20.32 10.85C20.51 10.92 20.67 10.95 20.77 10.97C20.94 11 21.11 10.95 21.24 10.82L21.37 10.69Z" fill="black"/>
<path fill-rule="evenodd" clip-rule="evenodd" d="M3.17 3.17C2 4.34 2 6.23 2 10V14C2 17.77 2 19.66 3.17 20.83C4.34 22 6.23 22 10 22H12C15.77 22 17.66 22 18.83 20.83C19.98 19.68 20 17.83 20 14.18L17.18 17C16.91 17.27 16.69 17.49 16.44 17.69C16.15 17.92 15.83 18.11 15.5 18.27C15.21 18.41 14.92 18.5 14.56 18.63L12.25 19.4C11.5 19.65 10.68 19.45 10.12 18.9C9.56 18.34 9.37 17.52 9.62 16.77L9.89 15.95L10.37 14.52L10.39 14.45C10.51 14.09 10.61 13.79 10.75 13.51C10.91 13.18 11.11 12.86 11.33 12.57C11.52 12.32 11.75 12.1 12.02 11.83L16.03 7.82L17.14 6.71L17.27 6.58C17.99 5.86 18.92 5.51 19.86 5.51C19.71 4.48 19.42 3.75 18.85 3.18C17.66 2 15.77 2 12 2H10C6.23 2 4.34 2 3.17 3.17ZM6.25 9C6.25 8.59 6.59 8.25 7 8.25H13.5C13.91 8.25 14.25 8.59 14.25 9C14.25 9.41 13.91 9.75 13.5 9.75H7C6.59 9.75 6.25 9.41 6.25 9ZM6.25 13C6.25 12.59 6.59 12.25 7 12.25H9.5C9.91 12.25 10.25 12.59 10.25 13C10.25 13.41 9.91 13.75 9.5 13.75H7C6.59 13.75 6.25 13.41 6.25 13ZM6.25 17C6.25 16.59 6.59 16.25 7 16.25H8.5C8.91 16.25 9.25 16.59 9.25 17C9.25 17.41 8.91 17.75 8.5 17.75H7C6.59 17.75 6.25 17.41 6.25 17Z" fill="black"/>
</svg>
