<svg width="24" height="24" viewBox="0 0 24 24" fill="none" xmlns="http://www.w3.org/2000/svg">
<path d="M12.49 15.73C12.37 15.86 12.21 15.93 12.03 15.93C11.85 15.93 11.69 15.86 11.57 15.73L8.28004 12.13C8.05004 11.88 8.07001 11.49 8.32001 11.26C8.57001 11.03 8.96001 11.05 9.19001 11.3L11.41 13.73V4.62001C11.41 4.28001 11.69 4 12.03 4C12.37 4 12.65 4.28001 12.65 4.62001V13.73L14.87 11.3C15.1 11.05 15.49 11.03 15.74 11.26C15.99 11.49 16.01 11.88 15.78 12.13L12.49 15.73Z" fill="black"/>
<path d="M5.23999 14.49C5.23999 14.15 4.96 13.87 4.62 13.87C4.28 13.87 4 14.15 4 14.49V14.54C4 15.67 3.99998 16.57 4.09998 17.29C4.19998 18.03 4.40997 18.66 4.90997 19.15C5.40997 19.65 6.03002 19.86 6.77002 19.96C7.48002 20.06 8.39002 20.06 9.52002 20.06H14.55C15.68 20.06 16.58 20.06 17.3 19.96C18.04 19.86 18.67 19.65 19.16 19.15C19.66 18.65 19.87 18.03 19.97 17.29C20.07 16.58 20.07 15.67 20.07 14.54V14.49C20.07 14.15 19.79 13.87 19.45 13.87C19.11 13.87 18.83 14.15 18.83 14.49C18.83 15.67 18.83 16.5 18.75 17.12C18.67 17.72 18.52 18.04 18.29 18.27C18.06 18.5 17.74 18.65 17.14 18.73C16.52 18.81 15.69 18.81 14.51 18.81H9.57001C8.39001 18.81 7.56 18.81 6.94 18.73C6.34 18.65 6.01998 18.5 5.78998 18.27C5.55998 18.04 5.41002 17.72 5.33002 17.12C5.25002 16.5 5.25 15.67 5.25 14.49H5.23999Z" fill="black"/>
</svg>
