<svg width="24" height="24" viewBox="0 0 24 24" fill="none" xmlns="http://www.w3.org/2000/svg">
<path fill-rule="evenodd" clip-rule="evenodd" d="M12 2C16.71 2 19.07 2.00001 20.54 3.46001C22 4.93001 22 7.28 22 12C22 16.72 22 19.07 20.54 20.53C19.07 22 16.72 22 12 22C7.28 22 4.93 22 3.47 20.53C2 19.07 2 16.71 2 12C2 7.29 2 4.93001 3.47 3.46001C4.93 2.00001 7.29 2 12 2ZM12 6.25C11.59 6.25 11.25 6.59 11.25 7V12.19L9.53 10.47C9.46 10.4 9.38 10.34 9.29 10.3C9.2 10.26 9.1 10.24 9 10.24C8.9 10.24 8.8 10.26 8.71 10.29C8.62 10.32 8.53 10.38 8.46 10.46C8.39 10.53 8.33 10.62 8.29 10.71C8.25 10.8 8.23 10.9 8.24 11C8.24 11.1 8.26 11.2 8.3 11.29C8.34 11.38 8.4 11.46 8.47 11.53L11.47 14.53C11.61 14.67 11.8 14.75 12 14.75C12.2 14.75 12.39 14.67 12.53 14.53L15.53 11.53C15.6 11.46 15.66 11.38 15.7 11.29C15.74 11.2 15.76 11.1 15.76 11C15.76 10.9 15.74 10.8 15.71 10.71C15.67 10.62 15.62 10.53 15.54 10.46C15.47 10.39 15.38 10.33 15.29 10.29C15.2 10.25 15.1 10.23 15 10.24C14.9 10.24 14.8 10.26 14.71 10.3C14.62 10.34 14.54 10.4 14.47 10.47L12.75 12.19V7C12.75 6.8 12.67 6.61 12.53 6.47C12.39 6.33 12.2 6.25 12 6.25ZM16 17.75C16.2 17.75 16.39 17.67 16.53 17.53C16.67 17.39 16.75 17.2 16.75 17C16.75 16.8 16.67 16.61 16.53 16.47C16.39 16.33 16.2 16.25 16 16.25H8C7.8 16.25 7.61 16.33 7.47 16.47C7.33 16.61 7.25 16.8 7.25 17C7.25 17.2 7.33 17.39 7.47 17.53C7.61 17.67 7.8 17.75 8 17.75H16Z" fill="black"/>
</svg>
