<svg width="24" height="24" viewBox="0 0 24 24" fill="none" xmlns="http://www.w3.org/2000/svg">
<path d="M12 12.8947C11.8245 12.8947 11.6387 12.8315 11.4942 12.7052L4.2684 6.38931C3.9484 6.1051 3.90709 5.61034 4.1858 5.27349C4.46451 4.94717 4.94967 4.90508 5.27999 5.18929L12 11.063L18.72 5.18929C19.04 4.90508 19.5355 4.94717 19.8142 5.27349C20.0929 5.59981 20.0516 6.1051 19.7316 6.38931L12.5058 12.7052C12.3613 12.8315 12.1858 12.8947 12 12.8947Z" fill="black"/>
<path d="M19.2258 19H4.77419C4.35097 19 4 18.6421 4 18.2105C4 17.7789 4.35097 17.421 4.77419 17.421H19.2258C19.649 17.421 20 17.7789 20 18.2105C20 18.6421 19.649 19 19.2258 19Z" fill="black"/>
</svg>
