<svg width="24" height="24" viewBox="0 0 24 24" fill="none" xmlns="http://www.w3.org/2000/svg">
<path d="M12 7.7C9.45 7.7 7.7 9.16 6.69 10.38C6.14 11.04 6 11.22 6 11.99C6 12.76 6.15 12.94 6.69 13.6L6.72003 13.64C7.74003 14.86 9.47 16.28 12 16.28C14.53 16.28 16.3 14.82 17.31 13.6C17.86 12.94 18 12.76 18 11.99C18 11.22 17.85 11.04 17.31 10.38C16.3 9.16 14.55 7.7 12 7.7ZM12 14.71C10.5 14.71 9.28998 13.49 9.28998 12C9.28998 10.51 10.51 9.29 12 9.29C13.49 9.29 14.71 10.51 14.71 12C14.71 13.49 13.49 14.71 12 14.71Z" fill="black"/>
<path d="M12 10.68C11.28 10.68 10.69 11.27 10.69 11.99C10.69 12.71 11.28 13.3 12 13.3C12.72 13.3 13.31 12.71 13.31 11.99C13.31 11.27 12.72 10.68 12 10.68Z" fill="black"/>
<path d="M20.54 3.46C19.07 2 16.72 2 12 2C7.28 2 4.93003 2 3.47003 3.46C2.00003 4.93 2 7.28 2 12C2 16.72 2.00003 19.07 3.47003 20.54C4.93003 22 7.29 22 12 22C16.71 22 19.07 22 20.54 20.54C22 19.08 22 16.72 22 12C22 7.28 22 4.93 20.54 3.46ZM18.39 14.49C17.18 15.95 15.1 17.68 12 17.68C8.9 17.68 6.99003 16.08 5.78003 14.68L5.57001 14.44C4.97001 13.71 4.60004 13.2 4.60004 11.99C4.60004 10.72 5.01999 10.2 5.60999 9.49C6.81999 8.03 8.9 6.3 12 6.3C15.1 6.3 17.18 8.03 18.39 9.49C18.98 10.2 19.41 10.72 19.41 11.99C19.41 13.26 18.99 13.78 18.4 14.49H18.39Z" fill="black"/>
</svg>
