<svg width="24" height="24" viewBox="0 0 24 24" fill="none" xmlns="http://www.w3.org/2000/svg">
<path d="M19.9231 8.41114C19.8453 8.23177 19.7121 8.15035 19.5232 8.07649C19.19 7.93933 18.8124 8.04484 18.6125 8.30861L18.5236 8.45631L18.5014 8.49852C18.5014 8.49852 18.457 8.59347 18.4126 8.66733C18.3348 8.81503 18.2126 9.02605 18.046 9.27926C17.7462 9.73294 17.2352 10.4187 16.5244 11.0518C15.8358 11.6637 15.0916 12.1174 14.303 12.4128C13.57 12.6871 12.7925 12.8243 11.9928 12.8243C10.1158 12.8243 8.44976 12.0963 7.03919 10.6508C6.47275 10.0706 6.0729 9.50082 5.83966 9.121C5.70638 8.90999 5.61752 8.74118 5.55088 8.62512L5.46203 8.43521C5.46203 8.43521 5.43981 8.40356 5.43981 8.38246L5.40649 8.31916C5.31764 8.2031 5.20657 8.10814 5.06218 8.05539C4.87337 7.98154 4.66234 7.98154 4.47352 8.05539C4.2736 8.1609 4.12921 8.29805 4.05146 8.47742C3.98482 8.63567 3.98482 8.81503 4.04036 8.97329L4.1181 9.1632L4.15142 9.22651C4.15142 9.22651 4.17364 9.25816 4.18475 9.27926C4.26249 9.42697 4.37356 9.62743 4.52906 9.8701C4.79562 10.2921 5.23989 10.9357 5.86187 11.5793L5.31764 12.0963C5.17325 12.2334 5.0955 12.4128 5.0955 12.6133C5.0955 12.8137 5.17325 12.9931 5.31764 13.1302C5.61752 13.4151 6.09512 13.4151 6.395 13.1302L6.98366 12.5711C7.39461 12.8876 7.83888 13.1619 8.29426 13.394L7.75003 14.1853C7.51679 14.5229 7.61675 14.9766 7.97217 15.1876C8.32758 15.4092 8.80518 15.3142 9.02731 14.9766L9.72704 13.9532C10.2046 14.0903 10.7155 14.1853 11.2376 14.2275V15.272C11.2376 15.6729 11.5819 16 12.0039 16C12.426 16 12.7703 15.6729 12.7703 15.272V14.238C13.2923 14.1958 13.7921 14.1009 14.2808 13.9532L14.9806 14.9766C15.0916 15.1349 15.2582 15.2509 15.4582 15.2931C15.6581 15.3353 15.858 15.2931 16.0357 15.1876C16.2134 15.0821 16.3245 14.9238 16.3689 14.7339C16.4133 14.544 16.3689 14.3436 16.2578 14.1853L15.7136 13.394C16.169 13.1619 16.6133 12.8876 17.0242 12.5711L17.6129 13.1302C17.9128 13.4151 18.3903 13.4151 18.6902 13.1302C18.9901 12.8454 18.9901 12.3811 18.6902 12.1068L18.1349 11.5793C18.7013 10.9885 19.1123 10.4293 19.3566 10.06C19.5121 9.81734 19.6565 9.57468 19.7898 9.34257C19.812 9.30036 19.8342 9.26871 19.8453 9.23706L19.9231 9.0788L19.9564 9.00495C20.023 8.83614 20.0053 8.66733 19.9564 8.49852L19.9231 8.41114Z" fill="black"/>
</svg>
