<svg width="24" height="24" viewBox="0 0 24 24" fill="none" xmlns="http://www.w3.org/2000/svg">
<path d="M20.2898 15.8455L20.9752 12.1733C21.149 11.2553 20.3864 10.4137 19.392 10.4137H14.3914C13.8991 10.4137 13.5226 10.0025 13.5998 9.5435L14.2369 5.89999C14.3431 5.30708 14.3142 4.70461 14.15 4.12127C14.0149 3.64311 13.6191 3.25103 13.0978 3.09802L12.953 3.05977C12.6344 2.96414 12.2965 2.98326 11.9973 3.11715C11.669 3.26059 11.4277 3.53792 11.3408 3.8535L10.8774 5.5079C10.7326 6.03387 10.5203 6.54071 10.2403 7.01886C9.83484 7.71696 9.217 8.28118 8.57021 8.79758L7.14146 9.85908C6.55258 10.2607 6.62981 10.7006 6.62981 11.1692V19.1257C6.62981 19.9768 6.77461 20.9904 8.01029 20.9904H13.5033C16.8627 20.9904 19.7299 18.8101 20.2802 15.8264L20.2898 15.8455Z" fill="black"/>
<path d="M4.25498 10.1747H3.80126C3.35874 10.1747 3 10.53 3 10.9684V20.2063C3 20.6446 3.35874 21 3.80126 21H4.25498C4.69751 21 5.05624 20.6446 5.05624 20.2063V10.9684C5.05624 10.53 4.69751 10.1747 4.25498 10.1747Z" fill="black"/>
</svg>
