<svg width="24" height="24" viewBox="0 0 24 24" fill="none" xmlns="http://www.w3.org/2000/svg">
<path fill-rule="evenodd" clip-rule="evenodd" d="M3.2144 11.4782L9.41255 5.21658C9.54898 5.07875 9.73415 5 9.92906 5C10.124 5 10.3091 5.07875 10.4456 5.21658C10.582 5.35442 10.66 5.54149 10.66 5.7384C10.66 5.9353 10.582 6.12236 10.4456 6.2602L5.49485 11.2616H20.2691C20.464 11.2616 20.6492 11.3404 20.7856 11.4782C20.922 11.616 21 11.8031 21 12C21 12.1969 20.922 12.384 20.7856 12.5218C20.6492 12.6596 20.464 12.7384 20.2691 12.7384H5.49485L10.4456 17.7398C10.582 17.8776 10.66 18.0647 10.66 18.2616C10.66 18.4585 10.582 18.6456 10.4456 18.7834C10.3091 18.9213 10.124 19 9.92906 19C9.73415 19 9.54898 18.9213 9.41255 18.7834L3.2144 12.5218C3.07797 12.384 3 12.1969 3 12C3 11.8031 3.07797 11.616 3.2144 11.4782Z" fill="black"/>
</svg>
