<svg width="24" height="24" viewBox="0 0 24 24" fill="none" xmlns="http://www.w3.org/2000/svg">
<path d="M21.835 7.61C22.4757 8.26 22.7476 9.08 22.8738 10.05C23 10.99 23 12.18 23 13.65V13.77C23 15.25 23 16.44 22.8738 17.37C22.7476 18.34 22.4757 19.16 21.835 19.81C21.1942 20.46 20.3981 20.74 19.4369 20.87C18.5146 21 17.3495 21 15.9029 21H10.4855C9.03885 21 7.86408 21 6.95146 20.87C6 20.74 5.19418 20.46 4.5534 19.81C4.16505 19.42 3.91264 18.96 3.74759 18.45C4.70875 18.57 5.89322 18.57 7.26215 18.57H12.7767C14.1845 18.57 15.3981 18.57 16.3786 18.44C17.4175 18.3 18.4175 17.98 19.233 17.15C20.0485 16.33 20.3592 15.31 20.4952 14.25C20.6214 13.26 20.6214 12.02 20.6214 10.59V10.38C20.6214 8.98 20.6214 7.78 20.5048 6.8C21.0097 6.97 21.4563 7.23 21.8447 7.62L21.835 7.61Z" fill="black"/>
<path d="M10.0097 8.59C8.98058 8.59 8.15533 9.44 8.15533 10.48C8.15533 11.52 8.99029 12.37 10.0097 12.37C11.0291 12.37 11.8641 11.52 11.8641 10.48C11.8641 9.44 11.0291 8.59 10.0097 8.59Z" fill="black"/>
<path fill-rule="evenodd" clip-rule="evenodd" d="M1.93206 4.95C1.00002 5.9 1 7.42 1 10.48C1 13.54 1.00002 15.06 1.93206 16.01C2.8641 16.96 4.35924 16.96 7.35924 16.96H12.6602C15.6602 16.96 17.1553 16.96 18.0874 16.01C19.0194 15.06 19.0194 13.54 19.0194 10.48C19.0194 7.42 19.0194 5.9 18.0874 4.95C17.1553 4 15.6602 4 12.6602 4H7.35924C4.35924 4 2.8641 4 1.93206 4.95ZM6.56312 10.48C6.56312 8.54 8.10679 6.97 10.0097 6.97C11.9126 6.97 13.4563 8.54 13.4563 10.48C13.4563 12.42 11.9126 13.99 10.0097 13.99C8.10679 13.99 6.56312 12.42 6.56312 10.48ZM15.8447 13.44C15.4078 13.44 15.0485 13.08 15.0485 12.63V8.31C15.0485 7.86 15.4078 7.5 15.8447 7.5C16.2816 7.5 16.6408 7.86 16.6408 8.31V12.63C16.6408 13.08 16.2816 13.44 15.8447 13.44ZM3.38837 12.63C3.38837 13.08 3.74757 13.44 4.18446 13.44C4.62136 13.44 4.98059 13.08 4.98059 12.63V8.31C4.98059 7.86 4.62136 7.5 4.18446 7.5C3.74757 7.5 3.38837 7.86 3.38837 8.31V12.63Z" fill="black"/>
</svg>
