<svg width="24" height="24" viewBox="0 0 24 24" fill="none" xmlns="http://www.w3.org/2000/svg">
<path d="M18.2872 15.5714H5.71283C5.32315 15.5714 5 15.8953 5 16.2857C5 16.6762 5.32315 17 5.71283 17H18.2872C18.6769 17 19 16.6762 19 16.2857C19 15.8953 18.6769 15.5714 18.2872 15.5714Z" fill="#121A22"/>
<path d="M18.2872 11.2857H5.71283C5.32315 11.2857 5 11.6095 5 12C5 12.3905 5.32315 12.7143 5.71283 12.7143H18.2872C18.6769 12.7143 19 12.3905 19 12C19 11.6095 18.6769 11.2857 18.2872 11.2857Z" fill="#121A22"/>
<path d="M5.71283 8.42857H18.2872C18.6769 8.42857 19 8.10476 19 7.71429C19 7.32381 18.6769 7 18.2872 7H5.71283C5.32315 7 5 7.32381 5 7.71429C5 8.10476 5.32315 8.42857 5.71283 8.42857Z" fill="#121A22"/>
</svg>
