<svg width="24" height="24" viewBox="0 0 24 24" fill="none" xmlns="http://www.w3.org/2000/svg">
<path fill-rule="evenodd" clip-rule="evenodd" d="M4.17 3.17C3 4.34 3 6.23 3 10V14C3 17.77 3 19.66 4.17 20.83C5.34 22 7.23 22 11 22H13C16.77 22 18.66 22 19.83 20.83C21 19.66 21 17.77 21 14V10C21 6.23 21 4.34 19.83 3.17C18.66 2 16.77 2 13 2H11C7.23 2 5.34 2 4.17 3.17ZM8 9.25C7.59 9.25 7.25 9.59 7.25 10C7.25 10.41 7.59 10.75 8 10.75H16C16.41 10.75 16.75 10.41 16.75 10C16.75 9.59 16.41 9.25 16 9.25H8ZM8 13.25C7.59 13.25 7.25 13.59 7.25 14C7.25 14.41 7.59 14.75 8 14.75H13C13.41 14.75 13.75 14.41 13.75 14C13.75 13.59 13.41 13.25 13 13.25H8Z" fill="black"/>
</svg>
