<svg width="24" height="24" viewBox="0 0 24 24" fill="none" xmlns="http://www.w3.org/2000/svg">
<path fill-rule="evenodd" clip-rule="evenodd" d="M20.54 3.46C19.07 2 16.72 2 12 2C7.28 2 4.92999 2 3.45999 3.46C1.99999 4.92 2 7.28 2 12C2 16.72 1.99999 19.07 3.45999 20.53C4.91999 22 7.28 22 12 22C16.72 22 19.07 22 20.54 20.53C22 19.07 22 16.71 22 12C22 7.29 22 4.93 20.54 3.46ZM19.16 9.37L19.13 9.44L19.06 9.59C19.06 9.59 19.03 9.65 19.01 9.69C18.9 9.91 18.77 10.14 18.62 10.37C18.4 10.73 18.03 11.25 17.52 11.81L18.02 12.31C18.29 12.58 18.29 13.02 18.02 13.28C17.75 13.55 17.31 13.55 17.05 13.28L16.52 12.75C16.15 13.05 15.75 13.31 15.34 13.53L15.83 14.28C15.93 14.43 15.96 14.62 15.93 14.8C15.89 14.98 15.79 15.13 15.63 15.23C15.47 15.33 15.29 15.36 15.11 15.33C14.93 15.29 14.78 15.19 14.68 15.03L14.05 14.06C13.61 14.19 13.16 14.28 12.69 14.33V15.31C12.69 15.69 12.38 16 12 16C11.62 16 11.31 15.69 11.31 15.31V14.32C10.84 14.28 10.39 14.19 9.94998 14.06L9.31998 15.03C9.10998 15.35 8.69 15.44 8.37 15.23C8.05 15.02 7.95998 14.6 8.16998 14.28L8.65997 13.53C8.24997 13.31 7.85998 13.05 7.47998 12.75L6.94998 13.28C6.67998 13.55 6.24998 13.55 5.97998 13.28C5.84998 13.15 5.78 12.98 5.78 12.79C5.78 12.6 5.84998 12.43 5.97998 12.3L6.46997 11.81C5.90997 11.2 5.50999 10.59 5.26999 10.19C5.12999 9.96 5.02999 9.77 4.95999 9.63L4.92999 9.58L4.89999 9.52L4.82999 9.34C4.76999 9.19 4.77999 9.02 4.82999 8.87C4.89999 8.7 5.02998 8.56 5.19998 8.49C5.36998 8.42 5.54998 8.41 5.72998 8.49C5.85998 8.54 5.95998 8.63 6.03998 8.74L6.06998 8.8C6.06998 8.8 6.09 8.83 6.09 8.85L6.16998 9.03C6.22998 9.14 6.30999 9.3 6.42999 9.5C6.63999 9.86 7.00998 10.41 7.50998 10.95C8.77998 12.32 10.28 13.01 11.97 13.01C12.7 13.01 13.4 12.88 14.05 12.62C14.76 12.34 15.44 11.9 16.05 11.33C16.69 10.73 17.15 10.08 17.42 9.65C17.57 9.41 17.68 9.21 17.75 9.07C17.78 9 17.81 8.95 17.83 8.91L17.85 8.87L17.93 8.72C18.12 8.48 18.45 8.38 18.75 8.51C18.92 8.58 19.05 8.72 19.12 8.89C19.18 9.05 19.22 9.22 19.16 9.37Z" fill="black"/>
</svg>
