<svg width="24" height="24" viewBox="0 0 24 24" fill="none" xmlns="http://www.w3.org/2000/svg">
<path d="M13.1718 12L17.7596 7.41225C18.0802 7.09166 18.0802 6.56103 17.7596 6.24044C17.439 5.91985 16.9084 5.91985 16.5878 6.24044L12 10.8282L7.41225 6.24044C7.09166 5.91985 6.56103 5.91985 6.24044 6.24044C5.91985 6.56103 5.91985 7.09166 6.24044 7.41225L10.8282 12L6.24044 16.5877C5.91985 16.9083 5.91985 17.439 6.24044 17.7596C6.56103 18.0801 7.09166 18.0801 7.41225 17.7596L12 13.1718L16.5878 17.7596C16.9084 18.0801 17.439 18.0801 17.7596 17.7596C18.0802 17.439 18.0802 16.9083 17.7596 16.5877L13.1718 12Z" fill="#121A22"/>
</svg>
