<?xml version="1.0" encoding="UTF-8"?>
<svg id="Layer_1" data-name="Layer 1" xmlns="http://www.w3.org/2000/svg" version="1.1" viewBox="0 0 24 24">
  <defs>
    <style>
      .cls-1 {
        fill: #000;
        stroke-width: 0px;
      }
    </style>
  </defs>
  <path class="cls-1" d="M15.4,8.6c-.3-.3-.8-.3-1.1,0l-2.3,2.3-2.3-2.3c-.3-.3-.8-.3-1.1,0s-.3.8,0,1.1l2.3,2.3-2.3,2.3c-.3.3-.3.8,0,1.1s.8.3,1.1,0l2.3-2.3,2.3,2.3c.1.1.3.2.5.2s.4,0,.5-.2c.3-.3.3-.8,0-1.1l-2.3-2.3,2.3-2.3c.3-.3.3-.8,0-1.1Z"/>
  <path class="cls-1" d="M12,1.2C6.1,1.2,1.2,6.1,1.2,12s4.8,10.8,10.8,10.8,10.8-4.8,10.8-10.8S17.9,1.2,12,1.2ZM12,21.2c-5.1,0-9.2-4.1-9.2-9.2S6.9,2.8,12,2.8s9.2,4.1,9.2,9.2-4.1,9.2-9.2,9.2Z"/>
</svg>