<svg width="24" height="24" viewBox="0 0 24 24" fill="none" xmlns="http://www.w3.org/2000/svg">
<g clip-path="url(#clip0_2004_19354)">
<path d="M18.9081 9.3638C17.6108 7.8348 15.3514 6 12 6C8.64865 6 6.4 7.8348 5.09189 9.3638C4.45405 10.1125 4 10.6608 4 12C4 13.3392 4.4 13.8137 5.04865 14.5835L5.27568 14.8366C6.59459 16.3128 8.78919 18 12 18C15.2108 18 17.6 16.1757 18.9081 14.6362C19.5459 13.8875 20 13.3392 20 12C20 10.6608 19.5351 10.1125 18.8973 9.3638H18.9081ZM18.4865 12C18.4865 12.812 18.3243 13.0018 17.7405 13.6977C16.6486 14.9842 14.7568 16.5237 12 16.5237C9.24324 16.5237 7.39459 15.0158 6.29189 13.7399L6.25946 13.6977C5.66486 13.0018 5.51351 12.812 5.51351 12C5.51351 11.188 5.67568 10.9982 6.25946 10.3023C7.35135 9.01582 9.23243 7.47627 12 7.47627C14.7676 7.47627 16.6486 9.01582 17.7405 10.3023C18.3351 10.9982 18.4865 11.188 18.4865 12Z" fill="black"/>
<path d="M12 9.14236C10.3784 9.14236 9.0703 10.4288 9.0703 12C9.0703 13.5712 10.3892 14.8577 12 14.8577C13.6108 14.8577 14.9298 13.5712 14.9298 12C14.9298 10.4288 13.6108 9.14236 12 9.14236ZM13.4162 12C13.4162 12.7592 12.7784 13.3814 12 13.3814C11.2216 13.3814 10.5838 12.7592 10.5838 12C10.5838 11.2408 11.2216 10.6186 12 10.6186C12.7784 10.6186 13.4162 11.2408 13.4162 12Z" fill="black"/>
</g>
<defs>
<clipPath id="clip0_2004_19354">
<rect width="16" height="12" fill="white" transform="translate(4 6)"/>
</clipPath>
</defs>
</svg>
