<svg width="24" height="24" viewBox="0 0 24 24" fill="none" xmlns="http://www.w3.org/2000/svg">
<path fill-rule="evenodd" clip-rule="evenodd" d="M5.22813 18.7719C5.37332 18.917 5.57037 19 5.77778 19C5.98519 19 6.18222 18.917 6.32741 18.7719L17.4444 7.65481V15.1111C17.4444 15.3185 17.5274 15.5156 17.6726 15.6607C17.8178 15.8059 18.0148 15.8889 18.2222 15.8889C18.4296 15.8889 18.6267 15.8059 18.7719 15.6607C18.917 15.5156 19 15.3185 19 15.1111V5.77778C19 5.57037 18.917 5.37332 18.7719 5.22813C18.6267 5.08295 18.4296 5 18.2222 5H8.88889C8.68148 5 8.48443 5.08295 8.33924 5.22813C8.19406 5.37332 8.11111 5.57037 8.11111 5.77778C8.11111 5.98519 8.19406 6.18222 8.33924 6.32741C8.48443 6.47259 8.68148 6.55556 8.88889 6.55556H16.3452L5.22813 17.6726C5.08295 17.8178 5 18.0148 5 18.2222C5 18.4296 5.08295 18.6267 5.22813 18.7719Z" fill="black"/>
</svg>
