<svg width="24" height="24" viewBox="0 0 24 24" fill="none" xmlns="http://www.w3.org/2000/svg">
<path fill-rule="evenodd" clip-rule="evenodd" d="M22 12C22 17.52 17.52 22 12 22C6.48 22 2 17.52 2 12C2 6.48 6.48 2 12 2C17.52 2 22 6.48 22 12ZM16.03 8.97C16.32 9.26 16.32 9.74 16.03 10.03L11.03 15.03C10.74 15.32 10.26 15.32 9.97 15.03L7.97 13.03C7.68 12.74 7.68 12.26 7.97 11.97C8.26 11.68 8.74 11.68 9.03 11.97L10.5 13.44L12.73 11.21L14.96 8.98C15.25 8.69 15.73 8.69 16.02 8.98L16.03 8.97Z" fill="black"/>
</svg>
