<svg width="24" height="24" viewBox="0 0 24 24" fill="none" xmlns="http://www.w3.org/2000/svg">
<path d="M15.8435 7.7153C15.8435 9.77377 14.1168 11.4306 11.9948 11.4306C9.87281 11.4306 8.1461 9.76373 8.1461 7.7153C8.1461 5.66686 9.87281 4 11.9948 4C14.1168 4 15.8435 5.66686 15.8435 7.7153Z" fill="black"/>
<path d="M18.6 17.2847C18.6 19.3432 15.6459 21 11.9948 21C8.34374 21 5.3896 19.3331 5.3896 17.2847C5.3896 15.2363 8.34374 13.5694 11.9948 13.5694C15.6459 13.5694 18.6 15.2363 18.6 17.2847Z" fill="black"/>
<path d="M6.62743 5.06438C6.82506 5.06438 7.0123 5.08446 7.19953 5.11459C6.75225 5.88777 6.49221 6.77141 6.49221 7.71529C6.49221 8.65918 6.73145 9.50265 7.16833 10.2658C6.9915 10.2959 6.81466 10.316 6.62743 10.316C5.06714 10.316 3.80853 9.14117 3.80853 7.69521C3.80853 6.24926 5.06714 5.07442 6.62743 5.07442V5.06438Z" fill="black"/>
<path d="M4.78629 19.9256C4.16217 19.2026 3.7461 18.319 3.7461 17.2847C3.7461 16.2504 4.14138 15.417 4.73429 14.7141C2.63311 14.8748 1 15.9793 1 17.3148C1 18.6503 2.67471 19.785 4.7967 19.9256H4.78629Z" fill="black"/>
<path d="M17.4974 7.7153C17.4974 8.6391 17.2582 9.50266 16.8213 10.2658C16.9981 10.2959 17.1749 10.316 17.3622 10.316C18.9225 10.316 20.1811 9.14117 20.1811 7.69522C20.1811 6.24926 18.9225 5.07442 17.3622 5.07442C17.1645 5.07442 16.9773 5.09451 16.7901 5.12463C17.2374 5.89782 17.4974 6.78145 17.4974 7.72534V7.7153Z" fill="black"/>
<path d="M19.2033 19.9256C21.3253 19.785 23 18.6704 23 17.3148C23 15.9592 21.3565 14.8647 19.2657 14.7141C19.8586 15.427 20.2539 16.2906 20.2539 17.2847C20.2539 18.2788 19.8378 19.2026 19.2137 19.9256H19.2033Z" fill="black"/>
</svg>
