<svg width="24" height="24" viewBox="0 0 24 24" fill="none" xmlns="http://www.w3.org/2000/svg">
<path d="M21 6.66667C21 8.14222 19.794 9.33333 18.3 9.33333C16.806 9.33333 15.6 8.14222 15.6 6.66667C15.6 5.19111 16.806 4 18.3 4C19.794 4 21 5.19111 21 6.66667Z" fill="black"/>
<path fill-rule="evenodd" clip-rule="evenodd" d="M13.8 5.77778H10.2C6.807 5.77778 5.106 5.77778 4.053 6.81778C3 7.85778 3 9.53778 3 12.8889C3 16.24 3 17.92 4.053 18.96C5.106 20 6.807 20 10.2 20H13.8C17.193 20 18.894 20 19.947 18.96C21 17.92 21 16.24 21 12.8889C21 11.6 21 10.5511 20.937 9.69778C20.226 10.3022 19.308 10.6667 18.3 10.6667C17.868 10.6667 17.454 10.6044 17.067 10.48L15.861 11.4756C15.06 12.1333 14.421 12.6667 13.845 13.0311C13.251 13.4044 12.675 13.6444 12.009 13.6444C11.343 13.6444 10.767 13.4044 10.173 13.0311C9.606 12.6667 8.958 12.1333 8.157 11.4756L6.177 9.84889C5.889 9.60889 5.85299 9.19111 6.08699 8.90667C6.32099 8.62222 6.75299 8.58667 7.04099 8.81778L8.98499 10.4178C9.82199 11.1111 10.407 11.5911 10.902 11.9022C11.379 12.2044 11.703 12.3022 12.009 12.3022C12.315 12.3022 12.639 12.2044 13.116 11.9022C13.611 11.5911 14.196 11.1111 15.033 10.4178L15.789 9.79556C14.853 9.06667 14.259 7.92889 14.259 6.66667C14.259 6.36444 14.295 6.06222 14.358 5.77778C14.178 5.77778 13.998 5.77778 13.809 5.77778H13.8Z" fill="black"/>
</svg>
