<svg width="24" height="24" viewBox="0 0 24 24" fill="none" xmlns="http://www.w3.org/2000/svg">
<path d="M11.9764 3C16.4035 3 20 6.62494 20 11.0871C20 12.9995 19.3298 14.8548 18.1027 16.3105V16.32H18.1215L13.364 21.4101C13.1847 21.6004 12.977 21.7526 12.741 21.8478C12.505 21.9524 12.2501 22 11.9953 22C11.7404 22 11.4855 21.9429 11.2496 21.8478C11.0136 21.7431 10.7965 21.5909 10.6265 21.4101L5.86903 16.32H5.88791V16.3009C5.58584 15.9394 5.31209 15.5493 5.07611 15.1307C4.36814 13.9034 4 12.5048 4 11.0871C4 6.62494 7.59646 3 12.0236 3H11.9764ZM11.9764 8.23285C11.2212 8.23285 10.5038 8.53731 9.97522 9.07011C9.44661 9.60291 9.14454 10.3355 9.14454 11.0871C9.14454 11.8388 9.44661 12.5714 9.97522 13.1042C10.5038 13.637 11.2307 13.9414 11.9764 13.9414C12.7221 13.9414 13.449 13.637 13.9776 13.1042C14.5062 12.5714 14.8083 11.8388 14.8083 11.0871C14.8083 10.3355 14.5062 9.60291 13.9776 9.07011C13.449 8.53731 12.7221 8.23285 11.9764 8.23285Z" fill="black"/>
</svg>
