<svg width="24" height="24" viewBox="0 0 24 24" fill="none" xmlns="http://www.w3.org/2000/svg">
<path fill-rule="evenodd" clip-rule="evenodd" d="M12 16C15.87 16 19 12.87 19 9C19 5.13 15.87 2 12 2C8.13 2 5 5.13 5 9C5 12.87 8.13 16 12 16ZM12 6C11.72 6 11.53 6.34 11.15 7.02L11.05 7.2C10.94 7.39 10.89 7.49 10.8 7.55C10.72 7.61 10.61 7.64 10.4 7.69L10.21 7.73C9.46999 7.9 9.09999 7.98 9.01999 8.26C8.92999 8.54 9.18 8.84 9.69 9.42L9.82001 9.57C9.96001 9.74 10.03 9.82 10.07 9.92C10.1 10.02 10.09 10.13 10.07 10.36L10.05 10.56C9.96999 11.34 9.93998 11.74 10.17 11.91C10.4 12.08 10.75 11.93 11.44 11.61L11.62 11.53C11.82 11.44 11.91 11.39 12.02 11.39C12.13 11.39 12.22 11.44 12.42 11.53L12.6 11.61C13.29 11.93 13.64 12.09 13.87 11.91C14.1 11.74 14.06 11.34 13.99 10.56L13.97 10.36C13.95 10.14 13.94 10.03 13.97 9.92C14 9.82 14.07 9.73 14.22 9.57L14.35 9.42C14.85 8.83 15.11 8.54 15.02 8.26C14.93 7.98 14.56 7.89 13.83 7.73L13.64 7.69C13.43 7.64 13.33 7.62 13.24 7.55C13.16 7.49 13.1 7.39 12.99 7.2L12.89 7.02C12.51 6.34 12.32 6 12.04 6H12Z" fill="black"/>
<path d="M7.09 15.94L6.70999 17.32C6.07999 19.61 5.77 20.76 6.19 21.39C6.34 21.61 6.52998 21.79 6.75998 21.9C7.40998 22.23 8.42 21.71 10.44 20.66C11.11 20.31 11.45 20.14 11.8 20.1C11.93 20.09 12.07 20.09 12.2 20.1C12.56 20.14 12.89 20.31 13.56 20.66C15.58 21.71 16.58 22.24 17.24 21.9C17.47 21.78 17.67 21.61 17.81 21.39C18.23 20.76 17.91 19.62 17.29 17.32L16.91 15.94C15.52 16.92 13.83 17.5 12 17.5C10.17 17.5 8.48 16.92 7.09 15.94Z" fill="black"/>
</svg>
