<svg width="24" height="24" viewBox="0 0 24 24" fill="none" xmlns="http://www.w3.org/2000/svg">
<path d="M19.1859 11.1859H12.8141V4.81411C12.8141 4.36906 12.445 4 12 4C11.555 4 11.1859 4.36906 11.1859 4.81411V11.1859H4.81411C4.36906 11.1859 4 11.5549 4 12C4 12.445 4.36906 12.8141 4.81411 12.8141H11.1859V19.1859C11.1859 19.6309 11.555 20 12 20C12.445 20 12.8141 19.6309 12.8141 19.1859V12.8141H19.1859C19.6309 12.8141 20 12.445 20 12C20 11.5549 19.6309 11.1859 19.1859 11.1859Z" fill="#121A22"/>
</svg>
