<svg width="24" height="24" viewBox="0 0 24 24" fill="none" xmlns="http://www.w3.org/2000/svg">
<path fill-rule="evenodd" clip-rule="evenodd" d="M22 12C22 17.52 17.52 22 12 22C6.48 22 2 17.52 2 12C2 6.48 6.48 2 12 2C17.52 2 22 6.48 22 12ZM15.36 15.36C15.07 15.65 14.59 15.65 14.3 15.36L12 13.06L9.70001 15.36C9.41001 15.65 8.93001 15.65 8.64001 15.36C8.35001 15.07 8.35001 14.59 8.64001 14.3L10.94 12L8.64001 9.7C8.35001 9.41 8.35001 8.93 8.64001 8.64C8.93001 8.35 9.41001 8.35 9.70001 8.64L12 10.94L14.3 8.64C14.59 8.35 15.07 8.35 15.36 8.64C15.65 8.93 15.65 9.41 15.36 9.7L13.06 12L15.36 14.3C15.65 14.59 15.65 15.07 15.36 15.36Z" fill="black"/>
</svg>
