<svg width="24" height="24" viewBox="0 0 24 24" fill="none" xmlns="http://www.w3.org/2000/svg">
<path d="M9.01959 5.96932L6.47755 8.5089C6.00717 8.97882 5.57682 9.39874 5.24656 9.78868C5.02638 10.0386 4.81621 10.3086 4.62606 10.6085L4.60604 10.5885C4.60604 10.5885 4.53599 10.5186 4.51597 10.4986C4.07562 10.0686 3.5552 9.72869 2.98474 9.49873C2.95472 9.48873 2.9247 9.47873 2.86465 9.44874L2.48434 9.29876C1.97393 9.0988 1.83382 8.43891 2.22413 8.04897C3.34503 6.92916 4.69612 5.58939 5.33663 5.31943C5.90709 5.07947 6.52759 4.99949 7.12807 5.08948C7.67851 5.16946 8.18892 5.44941 9.0396 5.97932L9.01959 5.96932Z" fill="black"/>
<path d="M13.3731 19.3171C13.5732 19.527 13.7134 19.667 13.8334 19.827C13.9936 20.0369 14.1437 20.2569 14.2638 20.4869C14.4039 20.7468 14.514 21.0268 14.7342 21.5767C14.9143 22.0266 15.5148 22.1466 15.8651 21.7967L15.9451 21.7167C17.066 20.5969 18.4171 19.2571 18.6873 18.6072C18.9275 18.0373 19.0076 17.4174 18.9175 16.8275C18.8375 16.2776 18.5572 15.7677 18.0168 14.9278L15.4648 17.4674C14.9844 17.9473 14.544 18.3772 14.1537 18.7272C13.9135 18.9371 13.6533 19.1371 13.3731 19.3171Z" fill="black"/>
<path fill-rule="evenodd" clip-rule="evenodd" d="M14.4439 16.3776L20.2986 10.5486C21.1393 9.7087 21.5596 9.28877 21.7798 8.75886C22 8.22895 22 7.62905 22 6.44925V5.87935C22 4.04966 22 3.13981 21.4295 2.5699C20.8591 2 19.9484 2 18.1069 2H17.5364C16.3455 2 15.745 2 15.2146 2.21996C14.6741 2.43993 14.2538 2.85986 13.4131 3.69972L7.55841 9.52872C6.57763 10.5086 5.96714 11.1185 5.72694 11.7084C5.65689 11.8983 5.61686 12.0783 5.61686 12.2683C5.61686 13.0681 6.26738 13.718 7.55841 15.0078L7.72855 15.1778L9.77019 13.1081C10.0604 12.8082 10.5408 12.8082 10.831 13.1081C11.1313 13.3981 11.1313 13.878 10.831 14.1679L8.7894 16.2376L8.92951 16.3776C10.2205 17.6674 10.8711 18.3172 11.6817 18.3172C11.8619 18.3172 12.032 18.2872 12.2021 18.2273C12.8026 18.0073 13.4231 17.3874 14.4339 16.3876L14.4439 16.3776ZM17.1861 9.53873C16.4255 10.2986 15.1945 10.2986 14.4339 9.53873C13.6733 8.77885 13.6733 7.55906 14.4339 6.79919C15.1945 6.03932 16.4255 6.03932 17.1861 6.79919C17.9467 7.55906 17.9467 8.77885 17.1861 9.53873Z" fill="black"/>
</svg>
