<svg width="24" height="24" viewBox="0 0 24 24" fill="none" xmlns="http://www.w3.org/2000/svg">
<path fill-rule="evenodd" clip-rule="evenodd" d="M16.4697 4.21967C16.7626 3.92678 17.2374 3.92678 17.5303 4.21967L20.5303 7.21967C20.8232 7.51256 20.8232 7.98744 20.5303 8.28033L17.5303 11.2803C17.2374 11.5732 16.7626 11.5732 16.4697 11.2803C16.1768 10.9874 16.1768 10.5126 16.4697 10.2197L18.1893 8.5H9.00001C6.6528 8.5 4.75 10.4028 4.75 12.75C4.75 15.0972 6.65279 17 9 17H16C16.4142 17 16.75 17.3358 16.75 17.75C16.75 18.1642 16.4142 18.5 16 18.5H9C5.82436 18.5 3.25 15.9256 3.25 12.75C3.25 9.57436 5.82437 7 9.00001 7H18.1893L16.4697 5.28033C16.1768 4.98744 16.1768 4.51256 16.4697 4.21967Z" fill="#1C274C"/>
</svg>
