<svg width="24" height="24" viewBox="0 0 24 24" fill="none" xmlns="http://www.w3.org/2000/svg">
<path d="M4.27151 4.91997C5.54303 3.64779 7.59057 3.64779 11.6763 3.64779C12.5645 3.64779 13.3498 3.64779 14.0604 3.65714C14.0604 4.15292 14.2567 4.64869 14.6307 5.02287L15.6404 6.03313H13.4153C11.1434 6.03313 9.73158 7.15565 9.15192 7.73561L8.993 7.89463L8.83404 8.05366C8.25438 8.62427 7.13247 10.0461 7.13247 12.3192V14.9197C7.13247 15.9955 8.00196 16.8748 9.0865 16.8748C10.171 16.8748 11.0405 16.0048 11.0405 14.9197V12.3192C11.0405 11.4306 11.4612 10.9535 11.5921 10.8225L11.7604 10.6542L11.9287 10.4858C12.0596 10.3548 12.5364 9.93387 13.4246 9.93387H15.6498L14.6401 10.9441C13.8734 11.7112 13.8734 12.946 14.6401 13.7037C15.4067 14.4707 16.6408 14.4707 17.3981 13.7037L20.3526 10.7477C20.3526 11.2341 20.3526 11.758 20.3526 12.3192C20.3526 16.407 20.3526 18.4556 19.081 19.7278C17.8095 21 15.762 21 11.6763 21C7.59057 21 5.54303 21 4.27151 19.7278C2.99999 18.4556 3 16.407 3 12.3192C3 8.23139 2.99999 6.1828 4.27151 4.91061V4.91997Z" fill="black"/>
<path fill-rule="evenodd" clip-rule="evenodd" d="M15.5563 3.18942C15.8087 2.93686 16.2201 2.93686 16.4726 3.18942L20.8107 7.52982C21.0631 7.78238 21.0631 8.19397 20.8107 8.44654L16.4726 12.7869C16.2201 13.0395 15.8087 13.0395 15.5563 12.7869C15.3039 12.5344 15.3039 12.1228 15.5563 11.8702L18.7819 8.64298H13.4153C12.069 8.64298 11.2743 9.29778 10.9938 9.57841L10.8255 9.74678L10.6572 9.91516C10.3767 10.1958 9.72226 10.9909 9.72226 12.3379V14.9384C9.72226 15.2939 9.43242 15.5932 9.06779 15.5932C8.70316 15.5932 8.41335 15.3032 8.41335 14.9384V12.3379C8.41335 10.5325 9.30155 9.41938 9.73162 8.99844L9.8999 8.83942L10.0682 8.67104C10.4983 8.24074 11.6015 7.35209 13.4059 7.35209H18.7725L15.547 4.12485C15.2945 3.87229 15.2945 3.4607 15.547 3.20813L15.5563 3.18942Z" fill="black"/>
</svg>
