<svg width="24" height="24" viewBox="0 0 24 24" fill="none" xmlns="http://www.w3.org/2000/svg">
<path fill-rule="evenodd" clip-rule="evenodd" d="M4.7907 18.5116C4.7907 18.1302 5.10697 17.8139 5.48837 17.8139H18.5116C18.893 17.8139 19.2093 18.1302 19.2093 18.5116C19.2093 18.893 18.893 19.2093 18.5116 19.2093H5.48837C5.10697 19.2093 4.7907 18.893 4.7907 18.5116ZM7.58139 21.3023C7.58139 20.9209 7.89767 20.6046 8.27907 20.6046H15.7209C16.1023 20.6046 16.4186 20.9209 16.4186 21.3023C16.4186 21.6837 16.1023 22 15.7209 22H8.27907C7.89767 22 7.58139 21.6837 7.58139 21.3023Z" fill="black"/>
<path d="M6.49304 15.0233C6.00002 14.1302 5.72093 13.0977 5.72093 12C5.72093 8.53023 8.53023 5.72093 12 5.72093C15.4698 5.72093 18.2791 8.53023 18.2791 12C18.2791 13.0977 18 14.1302 17.507 15.0233H21.3023C21.6837 15.0233 22 15.3395 22 15.7209C22 16.1023 21.6837 16.4186 21.3023 16.4186H2.69767C2.31628 16.4186 2 16.1023 2 15.7209C2 15.3395 2.31628 15.0233 2.69767 15.0233H6.49304Z" fill="black"/>
<path fill-rule="evenodd" clip-rule="evenodd" d="M12 2C12.3814 2 12.6977 2.31628 12.6977 2.69767V3.62791C12.6977 4.0093 12.3814 4.32558 12 4.32558C11.6186 4.32558 11.3023 4.0093 11.3023 3.62791V2.69767C11.3023 2.31628 11.6186 2 12 2ZM4.93026 4.93023C5.20002 4.66047 5.64653 4.66047 5.9163 4.93023L6.27908 5.29302C6.54884 5.56279 6.54884 6.0093 6.27908 6.27907C6.00931 6.54884 5.5628 6.54884 5.29303 6.27907L4.93026 5.91628C4.66049 5.64651 4.66049 5.2 4.93026 4.93023ZM19.0698 4.93023C19.3395 5.2 19.3395 5.64651 19.0698 5.91628L18.707 6.27907C18.4372 6.54884 17.9907 6.54884 17.721 6.27907C17.4512 6.0093 17.4512 5.56279 17.721 5.29302L18.0837 4.93023C18.3535 4.66047 18.8 4.66047 19.0698 4.93023ZM2 12C2 11.6186 2.31628 11.3023 2.69767 11.3023H3.62791C4.0093 11.3023 4.32558 11.6186 4.32558 12C4.32558 12.3814 4.0093 12.6977 3.62791 12.6977H2.69767C2.31628 12.6977 2 12.3814 2 12ZM19.6744 12C19.6744 11.6186 19.9907 11.3023 20.3721 11.3023H21.3023C21.6837 11.3023 22 11.6186 22 12C22 12.3814 21.6837 12.6977 21.3023 12.6977H20.3721C19.9907 12.6977 19.6744 12.3814 19.6744 12Z" fill="black"/>
</svg>
