<svg width="24" height="24" viewBox="0 0 24 24" fill="none" xmlns="http://www.w3.org/2000/svg">
<path fill-rule="evenodd" clip-rule="evenodd" d="M20.54 3.46C19.07 2 16.72 2 12 2C7.28 2 4.92999 2 3.45999 3.46C1.99999 4.93 2 7.28 2 12C2 16.72 1.99999 19.07 3.45999 20.54C4.92999 22 7.28 22 12 22C16.72 22 19.07 22 20.54 20.54C22 19.08 22 16.72 22 12C22 7.28 22 4.93 20.54 3.46ZM15.74 7.61L15.98 7.37C16.16 7.19 16.45 7.19 16.63 7.37C16.81 7.55 16.81 7.84 16.63 8.02L16.39 8.26C16.21 8.44 15.92 8.44 15.75 8.26C15.57 8.08 15.57 7.79 15.75 7.62L15.74 7.61ZM11.55 5.91C11.55 5.66 11.75 5.45 12.01 5.45C12.27 5.45 12.47 5.65 12.47 5.91V6.52C12.47 6.77 12.27 6.98 12.01 6.98C11.75 6.98 11.55 6.78 11.55 6.52V5.91ZM7.38 7.37C7.56 7.19 7.84999 7.19 8.01999 7.37L8.25998 7.61C8.43998 7.79 8.43998 8.08 8.25998 8.26C8.07998 8.44 7.78999 8.44 7.60999 8.26L7.37 8.02C7.19 7.84 7.19 7.55 7.37 7.38L7.38 7.37ZM5.91998 11.54H6.53C6.78 11.54 6.98999 11.74 6.98999 12C6.98999 12.26 6.79 12.46 6.53 12.46H5.91998C5.66998 12.46 5.45999 12.26 5.45999 12C5.45999 11.74 5.65998 11.54 5.91998 11.54ZM14.44 18.53H9.57001C9.32001 18.53 9.10999 18.33 9.10999 18.07C9.10999 17.81 9.31001 17.61 9.57001 17.61H14.44C14.69 17.61 14.9 17.81 14.9 18.07C14.9 18.33 14.7 18.53 14.44 18.53ZM16.26 16.71H7.73999C7.48999 16.71 7.28 16.51 7.28 16.25C7.28 15.99 7.47999 15.79 7.73999 15.79H16.26C16.51 15.79 16.72 15.99 16.72 16.25C16.72 16.51 16.52 16.71 16.26 16.71ZM18.09 14.88H5.91998C5.66998 14.88 5.45999 14.68 5.45999 14.42C5.45999 14.16 5.65998 13.96 5.91998 13.96H8.39999C8.07999 13.37 7.88998 12.7 7.88998 11.98C7.88998 9.71 9.73 7.87 12 7.87C14.27 7.87 16.11 9.71 16.11 11.98C16.11 12.7 15.93 13.37 15.6 13.96H18.08C18.33 13.96 18.54 14.16 18.54 14.42C18.54 14.68 18.34 14.88 18.08 14.88H18.09ZM18.09 12.45H17.48C17.23 12.45 17.02 12.25 17.02 11.99C17.02 11.73 17.22 11.53 17.48 11.53H18.09C18.34 11.53 18.55 11.73 18.55 11.99C18.55 12.25 18.35 12.45 18.09 12.45Z" fill="black"/>
</svg>
