<svg width="24" height="24" viewBox="0 0 24 24" fill="none" xmlns="http://www.w3.org/2000/svg">
<path fill-rule="evenodd" clip-rule="evenodd" d="M3.46 3.46C2 4.92 2 7.28 2 12C2 16.72 2 19.07 3.46 20.54C4.92 22 7.28 22 12 22C16.72 22 19.07 22 20.54 20.54C22 19.08 22 16.72 22 12C22 7.28 22 4.93 20.54 3.46C19.07 2 16.71 2 12 2C7.29 2 4.93 2 3.46 3.46ZM15.76 6.87C15.45 6.59 14.98 6.61 14.7 6.91C14.42 7.21 14.44 7.69 14.74 7.97L15.58 8.75H9.96C7.63 8.75 5.75 10.64 5.75 12.96C5.75 15.28 7.64 17.17 9.96 17.17H14.5C14.91 17.17 15.25 16.83 15.25 16.42C15.25 16.01 14.91 15.67 14.5 15.67H9.96C8.46 15.67 7.25 14.46 7.25 12.96C7.25 11.46 8.46 10.25 9.96 10.25H15.58L14.74 11.03C14.44 11.31 14.42 11.79 14.7 12.09C14.98 12.39 15.45 12.41 15.76 12.13L18.01 10.05C18.16 9.91 18.25 9.71 18.25 9.5C18.25 9.29 18.16 9.09 18.01 8.95L15.76 6.87Z" fill="black"/>
</svg>
