<svg width="24" height="24" viewBox="0 0 24 24" fill="none" xmlns="http://www.w3.org/2000/svg">
<path fill-rule="evenodd" clip-rule="evenodd" d="M16.0886 6.19503C16.3538 5.93499 16.7927 5.93499 17.0579 6.19503L19.8011 8.88515C20.0663 9.1452 20.0663 9.57563 19.8011 9.83567L17.0579 12.5258C16.7927 12.7858 16.3538 12.7858 16.0886 12.5258C15.8234 12.2657 15.8234 11.8353 16.0886 11.5753L17.6614 10.0329H9.25789C7.10902 10.0329 5.37162 11.7367 5.37162 13.8439C5.37162 15.9512 7.10902 17.6549 9.25789 17.6549H15.6588C16.0337 17.6549 16.3446 17.9598 16.3446 18.3275C16.3446 18.6951 16.0337 19 15.6588 19H9.25789C6.35005 19 4 16.6955 4 13.8439C4 10.9924 6.35005 8.68788 9.25789 8.68788H17.6614L16.0886 7.14555C15.8234 6.88551 15.8234 6.45508 16.0886 6.19503Z" fill="black"/>
</svg>
