<svg width="40" height="40" viewBox="0 0 40 40" fill="none" xmlns="http://www.w3.org/2000/svg">
<rect width="40" height="40" rx="20" fill="black"/>
<path d="M7.86719 31.6335L9.58208 25.4062C8.52186 23.5784 7.96568 21.5084 7.97147 19.3923C7.97147 12.7613 13.3942 7.37012 20.051 7.37012C23.2838 7.37012 26.3196 8.62134 28.5965 10.8932C30.8791 13.165 32.1363 16.1864 32.1306 19.398C32.1306 26.0289 26.7078 31.4202 20.0452 31.4202H20.0394C18.0175 31.4202 16.0303 30.9128 14.2633 29.9556L7.86719 31.6335ZM14.5703 27.7818L14.9353 28.0009C16.4764 28.9119 18.2434 29.3905 20.0452 29.3963H20.051C25.5838 29.3963 30.0912 24.9161 30.0912 19.4038C30.0912 16.7341 29.0484 14.2259 27.1539 12.3347C25.2594 10.4434 22.7334 9.40552 20.051 9.40552C14.5182 9.39975 10.0108 13.8799 10.0108 19.3923C10.0108 21.2777 10.538 23.1171 11.5461 24.7085L11.7836 25.0891L10.7698 28.7736L14.5703 27.7818Z" fill="white"/>
<path d="M8.29102 31.2126L9.94797 25.1986C8.92251 23.44 8.38371 21.4392 8.38371 19.398C8.38951 12.9977 13.6211 7.79102 20.0519 7.79102C23.1746 7.79102 26.1004 9.00188 28.3019 11.193C30.5035 13.3841 31.7143 16.3017 31.7143 19.4038C31.7143 25.804 26.477 31.0108 20.0519 31.0108H20.0461C18.0937 31.0108 16.176 30.5206 14.4727 29.5981L8.29102 31.2126Z" fill="black"/>
<path d="M7.86719 31.6335L9.58208 25.4062C8.52186 23.5784 7.96568 21.5084 7.97147 19.3923C7.97147 12.7613 13.3942 7.37012 20.051 7.37012C23.2838 7.37012 26.3196 8.62134 28.5965 10.8932C30.8791 13.165 32.1363 16.1864 32.1306 19.398C32.1306 26.0289 26.7078 31.4202 20.0452 31.4202H20.0394C18.0175 31.4202 16.0303 30.9128 14.2633 29.9556L7.86719 31.6335ZM14.5703 27.7818L14.9353 28.0009C16.4764 28.9119 18.2434 29.3905 20.0452 29.3963H20.051C25.5838 29.3963 30.0912 24.9161 30.0912 19.4038C30.0912 16.7341 29.0484 14.2259 27.1539 12.3347C25.2594 10.4434 22.7334 9.40552 20.051 9.40552C14.5182 9.39975 10.0108 13.8799 10.0108 19.3923C10.0108 21.2777 10.538 23.1171 11.5461 24.7085L11.7836 25.0891L10.7698 28.7736L14.5703 27.7818Z" fill="white"/>
<path fill-rule="evenodd" clip-rule="evenodd" d="M17.0329 14.3646C16.807 13.8629 16.5695 13.8514 16.3551 13.8456C16.1813 13.8398 15.9785 13.8398 15.7757 13.8398C15.573 13.8398 15.2485 13.9148 14.9704 14.2146C14.6924 14.5145 13.916 15.241 13.916 16.7229C13.916 18.199 14.9994 19.6289 15.15 19.8307C15.3007 20.0325 17.2415 23.1635 20.3063 24.3686C22.8555 25.3719 23.3769 25.1701 23.9273 25.1182C24.4776 25.0663 25.7117 24.3917 25.9666 23.6882C26.2157 22.9847 26.2157 22.3851 26.1404 22.2582C26.0651 22.1314 25.8623 22.0564 25.561 21.9065C25.2598 21.7566 23.7766 21.0301 23.4985 20.9263C23.2204 20.8283 23.0177 20.7764 22.8207 21.0762C22.6179 21.376 22.0386 22.0506 21.8648 22.2525C21.691 22.4543 21.5114 22.4773 21.2101 22.3274C20.9088 22.1775 19.9355 21.8604 18.7826 20.834C17.8846 20.0383 17.2763 19.0523 17.1025 18.7525C16.9287 18.4527 17.0851 18.2912 17.2357 18.1413C17.369 18.0087 17.537 17.7896 17.6876 17.6166C17.8382 17.4436 17.8904 17.3168 17.9889 17.1149C18.0874 16.9131 18.041 16.7401 17.9657 16.5902C17.8904 16.4461 17.2994 14.9585 17.0329 14.3646Z" fill="white"/>
</svg>
