<svg width="40" height="40" viewBox="0 0 40 40" fill="none" xmlns="http://www.w3.org/2000/svg">
<rect width="40" height="40" rx="20" fill="url(#paint0_linear_444_20837)"/>
<path d="M7.86914 31.6355L9.58403 25.4082C8.52381 23.5803 7.96763 21.5103 7.97342 19.3942C7.97342 12.7633 13.3962 7.37207 20.053 7.37207C23.2858 7.37207 26.3216 8.6233 28.5984 10.8951C30.8811 13.1669 32.1383 16.1883 32.1325 19.4C32.1325 26.0309 26.7097 31.4221 20.0472 31.4221H20.0414C18.0194 31.4221 16.0322 30.9147 14.2652 29.9576L7.86914 31.6355ZM14.5723 27.7838L14.9373 28.0029C16.4783 28.9139 18.2454 29.3925 20.0472 29.3982H20.053C25.5858 29.3982 30.0932 24.9181 30.0932 19.4057C30.0932 16.7361 29.0503 14.2279 27.1559 12.3366C25.2614 10.4454 22.7354 9.40747 20.053 9.40747C14.5201 9.40171 10.0128 13.8819 10.0128 19.3942C10.0128 21.2797 10.54 23.1191 11.548 24.7105L11.7856 25.091L10.7717 28.7755L14.5723 27.7838Z" fill="white"/>
<path d="M8.29297 31.2145L9.94992 25.2006C8.92447 23.4419 8.38567 21.4411 8.38567 19.4C8.39146 12.9997 13.623 7.79297 20.0539 7.79297C23.1766 7.79297 26.1023 9.00383 28.3039 11.1949C30.5054 13.386 31.7163 16.3036 31.7163 19.4057C31.7163 25.806 26.4789 31.0127 20.0539 31.0127H20.0481C18.0956 31.0127 16.178 30.5226 14.4747 29.6L8.29297 31.2145Z" fill="url(#paint1_linear_444_20837)"/>
<path d="M7.86914 31.6355L9.58403 25.4082C8.52381 23.5803 7.96763 21.5103 7.97342 19.3942C7.97342 12.7633 13.3962 7.37207 20.053 7.37207C23.2858 7.37207 26.3216 8.6233 28.5984 10.8951C30.8811 13.1669 32.1383 16.1883 32.1325 19.4C32.1325 26.0309 26.7097 31.4221 20.0472 31.4221H20.0414C18.0194 31.4221 16.0322 30.9147 14.2652 29.9576L7.86914 31.6355ZM14.5723 27.7838L14.9373 28.0029C16.4783 28.9139 18.2454 29.3925 20.0472 29.3982H20.053C25.5858 29.3982 30.0932 24.9181 30.0932 19.4057C30.0932 16.7361 29.0503 14.2279 27.1559 12.3366C25.2614 10.4454 22.7354 9.40747 20.053 9.40747C14.5201 9.40171 10.0128 13.8819 10.0128 19.3942C10.0128 21.2797 10.54 23.1191 11.548 24.7105L11.7856 25.091L10.7717 28.7755L14.5723 27.7838Z" fill="url(#paint2_linear_444_20837)"/>
<path fill-rule="evenodd" clip-rule="evenodd" d="M17.0349 14.3665C16.8089 13.8649 16.5714 13.8533 16.3571 13.8476C16.1832 13.8418 15.9805 13.8418 15.7777 13.8418C15.5749 13.8418 15.2505 13.9168 14.9724 14.2166C14.6943 14.5164 13.918 15.2429 13.918 16.7248C13.918 18.2009 15.0014 19.6309 15.152 19.8327C15.3026 20.0345 17.2435 23.1654 20.3082 24.3705C22.8574 25.3738 23.3788 25.172 23.9292 25.1201C24.4796 25.0682 25.7136 24.3936 25.9685 23.6902C26.2177 22.9867 26.2177 22.387 26.1423 22.2602C26.067 22.1333 25.8643 22.0584 25.563 21.9085C25.2617 21.7585 23.7786 21.032 23.5005 20.9282C23.2224 20.8302 23.0196 20.7783 22.8226 21.0781C22.6199 21.378 22.0405 22.0526 21.8667 22.2544C21.6929 22.4562 21.5133 22.4793 21.212 22.3294C20.9108 22.1795 19.9375 21.8623 18.7845 20.836C17.8865 20.0403 17.2782 19.0543 17.1044 18.7544C16.9306 18.4546 17.087 18.2932 17.2377 18.1432C17.3709 18.0106 17.5389 17.7915 17.6896 17.6185C17.8402 17.4456 17.8923 17.3187 17.9908 17.1169C18.0893 16.9151 18.043 16.7421 17.9677 16.5922C17.8923 16.448 17.3014 14.9604 17.0349 14.3665Z" fill="white"/>
<defs>
<linearGradient id="paint0_linear_444_20837" x1="19.999" y1="39.998" x2="19.999" y2="-0.0013995" gradientUnits="userSpaceOnUse">
<stop stop-color="#20B038"/>
<stop offset="1" stop-color="#60D66A"/>
</linearGradient>
<linearGradient id="paint1_linear_444_20837" x1="20.004" y1="31.2134" x2="20.004" y2="7.79215" gradientUnits="userSpaceOnUse">
<stop stop-color="#20B038"/>
<stop offset="1" stop-color="#60D66A"/>
</linearGradient>
<linearGradient id="paint2_linear_444_20837" x1="20.0032" y1="31.6332" x2="20.0032" y2="7.37207" gradientUnits="userSpaceOnUse">
<stop stop-color="#F9F9F9"/>
<stop offset="1" stop-color="white"/>
</linearGradient>
</defs>
</svg>
