<svg width="40" height="40" viewBox="0 0 40 40" fill="none" xmlns="http://www.w3.org/2000/svg">
<rect width="40" height="40" rx="20" fill="black"/>
<path d="M31.789 13.661C31.5089 12.6206 30.6886 11.8003 29.6482 11.5202C27.7475 11 20.1446 11 20.1446 11C20.1446 11 12.5417 11 10.641 11.5002C9.62062 11.7803 8.7803 12.6206 8.50019 13.661C8 15.5617 8 19.5032 8 19.5032C8 19.5032 8 23.4647 8.50019 25.3455C8.7803 26.3859 9.60061 27.2062 10.641 27.4863C12.5617 28.0065 20.1446 28.0065 20.1446 28.0065C20.1446 28.0065 27.7475 28.0065 29.6482 27.5063C30.6886 27.2262 31.5089 26.4059 31.789 25.3655C32.2892 23.4647 32.2892 19.5232 32.2892 19.5232C32.2892 19.5232 32.3092 15.5617 31.789 13.661Z" fill="white"/>
<path d="M17.7246 23.1451L24.047 19.5037L17.7246 15.8623V23.1451Z" fill="black"/>
</svg>
